<?xml version="1.0" encoding="utf-8"?>
<!-- Generator: Adobe Illustrator 24.2.0, SVG Export Plug-In . SVG Version: 6.00 Build 0)  -->
<svg version="1.1" id="レイヤー_1" xmlns="http://www.w3.org/2000/svg" xmlns:xlink="http://www.w3.org/1999/xlink" x="0px"
	 y="0px" viewBox="0 0 600 400" style="enable-background:new 0 0 600 400;" xml:space="preserve">
<style type="text/css">
	.st0{fill:none;}
	.st1{fill:#231815;}
	.st2{fill:url(#SVGID_1_);}
	.st3{fill:none;stroke:#231815;stroke-miterlimit:10;}
</style>
<pattern  width="65.72" height="65.73" patternUnits="userSpaceOnUse" id="新規パターンスウォッチ_1" viewBox="0 -65.73 65.72 65.73" style="overflow:visible;">
	<g>
		<rect y="-65.73" class="st0" width="65.72" height="65.73"/>
		<polygon class="st1" points="0,-49.3 0,-65.73 16.43,-65.73 		"/>
		<polygon class="st0" points="49.29,-65.73 0,-16.44 0,-49.3 16.43,-65.73 		"/>
		<polygon class="st1" points="65.72,-65.73 65.72,-49.3 16.42,0 0,0 0,-16.44 49.29,-65.73 		"/>
		<polygon class="st0" points="65.72,-16.43 49.29,0 16.42,0 65.72,-49.3 		"/>
		<polygon class="st1" points="65.72,0 49.29,0 65.72,-16.43 		"/>
	</g>
</pattern>
<pattern  id="SVGID_1_" xlink:href="#譁ｰ隕上ヱ繧ｿ繝ｼ繝ｳ繧ｹ繧ｦ繧ｩ繝メ_1" patternTransform="matrix(0.148 0 0 0.148 -6640.7051 -6474.6558)">
</pattern>
<rect x="-251.06" y="309.05" class="st2" width="1095.88" height="7.88"/>
<path class="st1" d="M425.74,305.22c3.7,0.77,8.81,1.73,14.95,2.2c6.14,0.47,19.99,0.32,25.34,0.16c5.35-0.16,15.94,0.46,20.97,0.14
	c5.04-0.31,11.88,1.68,11.7-3.72c-0.19-5.71-5.61-5.71-7.8-5.96c-1.65-0.19-1.84-0.38-1.84-0.38c7.24-0.63,7.5-13.21,7.5-13.21
	c1.26,2.36,3.46,17.47,4.72,22.03c1.26,4.56,7.59,4.18,11.37,4.18c3.78,0,4.2-2.74,4.21-4.18c0.02-1.44-1.58-2.83-3.15-3.62
	c-1.57-0.79-1.73-1.89-1.73-1.89c-0.63-0.31-2.46-8.63-3.56-13.98c-1.1-5.35-0.33-16.42,1.56-17.21c1.89-0.79,1.85,5.38,3.42,13.72
	c1.57,8.34,1.89,19.04,1.89,22.03c0,1.13,0.6,1.87,1.56,2.38c1.58,0.84,4.12,1.04,6.47,1.24c3.78,0.31,6.45-0.16,8.03-2.36
	c1.57-2.2,0-5.51-2.67-6.3c-2.68-0.79-2.68-0.16-3.62-4.25c-0.94-4.09,0.32-28.33,0.16-34.47c-0.16-6.14,8.84-13.35,11.67-19.96
	c2.83-6.61,4.45-13.3,4.45-19.59c0-6.3-0.86-12.22-2.12-15.53c-1.26-3.31-2.05-11.17-2.52-13.69c-0.47-2.52,0.31-13.22,0.63-14.95
	c0.31-1.73,0.08-7.55-0.24-14.48c-0.32-6.92-3.86-14.64-6.37-14.64c-2.52,0-4.53,6.85-5.95,9.52c-1.42,2.68-3.03,3.92-3.03,3.92
	c-2.99,0-12.11,0.72-12.11,0.72s-11.49-12.59-14.48-11.02c-2.99,1.57,2.52,13.54,2.99,16.68c0.47,3.15-2.99,4.72-3.15,11.96
	c-0.19,8.97,4.56,10.7,6.61,12.43c2.05,1.73,1.89,2.99,1.89,2.99c-0.47,4.56-11.33,12.12-23.45,17.63
	c-12.12,5.51-15.57,3.63-30.62,20.32c-12.98,14.4-13.9,20.66-16.22,29.38c-1.82,6.87,0.09,13.57,0.25,20.18
	c0.16,6.61,3.36,10.14,2.57,12.03c-0.79,1.89-12.78,1.55-20.81-2.64c0,0-25.47-11.79-27.26-39.13c0,0-0.51-6.07-5.42-4.52
	c-4.11,1.3-2.71,7.2-1.76,12.04C381.67,265.96,390.43,297.87,425.74,305.22z"/>
<path class="st3" d="M480.96,191.38c-5.24-0.48-11.26-9.37-15.22-16.35c9.86-8.36,15.18-19.36,15.18-33.85
	c0-52.11-68.61-78.18-171.35-78.18C206.81,63,148,89.07,148,141.18s58.81,59.31,161.56,59.31c63.03,0,113.18-2.73,142.56-16.85
	C467.23,191.9,480.96,191.38,480.96,191.38z"/>
<g>
	<path d="M190.71,130.48l-0.74,0.8l-0.04,0.27c-0.08,0.53-0.3,0.96-0.67,1.28c-0.63,1.33-1.5,2.3-2.62,2.92l-0.59,0.53l-0.51,0.09
		l-0.63,0.53l-0.43,0.04l-0.98,0.71l-0.63-0.09l-0.7,0.44l-0.55-0.27l-0.27,0.27l-0.74-0.13l-0.74,0.13l-0.27-0.27l-0.78-0.18
		l-1.14-0.97l-0.63-0.88c-0.39-0.56-0.59-1.03-0.59-1.41v-0.13l-0.39-0.66v-0.57c-0.08-0.35-0.12-0.68-0.12-0.97v-0.31l-0.2-0.75
		l0.2-0.53L175.8,130l0.47-0.84l-0.12-0.71l0.31-1.15l0.16-0.27l0.16-1.06l-0.08-0.18l0.47-0.57l0.08-0.44l0.31-1.02l0.51-1.24
		l0.7-0.71l0.16-0.4l0.23-0.49l0.08-0.44l0.63-0.84c0.16-0.06,0.34-0.12,0.55-0.18c0.1-0.56,0.76-0.88,1.96-0.97
		c1.02,0.24,1.67,0.55,1.96,0.93c0.29,0.06,0.51,0.19,0.67,0.4l0.82,0.04l0.55,0.79c0.13,0.29,0.22,0.59,0.27,0.88l0.3,0.35
		l-0.12,0.66c0.03,0.21,0.04,0.53,0.04,0.97l0.21,0.18v0.66l0.16,1.37c-0.55,0.62-1.19,0.97-1.9,1.06
		c-0.37-0.77-0.83-1.35-1.39-1.73v-1.47l-0.27-0.49l0.03-0.36l-0.41-0.52l-0.2-0.16l-0.35,0.13h-0.51
		c-0.34,0.09-0.67,0.37-0.98,0.84s-0.63,0.97-0.94,1.5l-0.04,0.44l-0.24,0.22v0.79l-0.51,0.62l-0.63,1.94l0.04,0.53l-0.31,0.79
		l0.12,0.97l-0.23,0.13l-0.08,1.23l0.04,0.22l0.47,0.53l0.2,0.92l0.55,0.18l0.04,0.35l0.66,0.15l0.51,0.15
		c0.18-0.12,0.4-0.18,0.67-0.18h0.27c0.31-0.15,0.6-0.22,0.86-0.22c0.18-0.09,0.42-0.18,0.7-0.27c0.31-0.47,0.76-0.71,1.33-0.71
		h0.23c0.13,0,0.22-0.07,0.27-0.22c0.29-0.5,0.74-0.82,1.37-0.97c0.73-0.74,1.15-1.33,1.25-1.77c0.36-0.24,0.6-0.6,0.7-1.1
		l0.23-0.18l0.12-1.02c1.2,0.21,1.8,0.88,1.8,2.03V130.48z"/>
	<path d="M206.87,127.04l-0.23,0.8c0,0.77-0.04,1.37-0.12,1.81l-0.23,0.44v0.49l-0.2,0.31l-0.12,0.62l-0.43,0.49l-0.27,1.1
		l-0.31,0.13l-0.16,0.49l-0.47,0.31l-0.31,0.75l-0.47,0.26l-0.04,0.53l-0.74,0.31c-0.34,0.53-0.76,0.87-1.25,1.02l-0.16,0.04
		c-0.37,0.62-0.85,0.93-1.45,0.93c-0.26,0.18-0.56,0.27-0.9,0.27l-0.39,0.31l-0.39,0.13l-0.51,0.44h-0.51l-0.55,0.13l-0.67-0.31
		l-1.68-0.13l-0.59-1.02l-0.86-1.02l0.2-0.71l-0.59-1.5l0.2-0.57l-0.12-1.06l0.12-0.66c0-0.41,0-0.71,0-0.88
		c0-0.56,0.13-0.97,0.41-1.24c0.03-0.29,0.2-0.78,0.53-1.46h0.2l-0.12-0.31l0.12-0.62V127c0.21-0.27,0.33-0.44,0.35-0.53l-0.12-0.62
		v-0.18c0.18-0.41,0.27-0.84,0.27-1.28l0.82-1.28c0.13-0.12,0.22-0.21,0.27-0.27l-0.04-0.18h0.16l0.59-0.75l0.04-1.02l0.98-0.4
		c0.37-0.27,0.6-0.71,0.7-1.33h0.51c0.29-0.18,0.55-0.26,0.78-0.26s0.46,0.06,0.67,0.18l0.43,0.04l1.02-0.44l0.55,0.57l0.43,0.31
		h0.31l0.59,0.35h0.31c0.34,0.35,0.73,0.84,1.17,1.46l0.08,0.22l0.27,0.18l0.82,1.19l0.74,2.08v0.44L206.87,127.04z M204.29,128.08
		l-0.04-0.22c-0.18-0.21-0.29-0.43-0.31-0.66l0.12-0.22l-0.35-0.84l0.08-0.84l-0.16-0.22c-0.34-0.29-0.52-0.53-0.55-0.71
		c-0.23-0.12-0.35-0.41-0.35-0.88l-0.23-0.04l-0.47-0.88l-0.35-0.31l-0.82-0.35l-0.31-0.09c-0.16,0-0.26-0.06-0.31-0.18l-0.78,0.97
		l-0.51,1.23l-0.82,0.48l-0.12,0.48l-0.39,0.22l-0.16,1.14l-0.47,0.26c-0.1,0.41-0.16,0.79-0.16,1.14l-0.63,0.66l0.2,0.13
		c0,0.35-0.13,0.66-0.39,0.92c-0.09,0.26-0.2,0.56-0.35,0.88v0.35v0.18v0.53l-0.43,1.19l0.08,0.22v1.23l-0.16,0.61l0.04,0.61
		l0.35,0.57l0.55,0.22l0.2,0.09h0.31h1.02l0.16-0.44h0.16c0.16,0,0.25,0.04,0.27,0.13l0.35-0.13l0.31,0.13l0.51-0.4l0.08-0.13
		l0.35-0.09c0.18-0.33,0.61-0.65,1.29-0.98l0.08-0.22l0.78-0.62l0.43-0.71l0.63-0.35l0.04-0.22l0.2-0.49v-0.57l0.47-0.44l0.16-0.31
		l0.2-0.26c-0.1-0.35-0.16-0.6-0.16-0.75c0-0.26,0.08-0.54,0.23-0.84L204.29,128.08z"/>
	<path d="M242.85,132.16c-0.13,0.41-0.3,0.72-0.51,0.93c-0.08,0.32-0.2,0.56-0.35,0.71c-0.13,0.29-0.29,0.5-0.47,0.62l-0.16,0.27
		c-0.1,0.18-0.25,0.26-0.43,0.26l-0.2,0.44h-0.27l-0.2,0.4l-0.31,0.13l-0.23,0.31l-0.2,0.18c-0.39,0-0.72,0.13-0.98,0.4
		c-0.34,0.15-0.69,0.22-1.06,0.22c-0.37,0-0.73-0.1-1.1-0.31c-0.42-0.03-0.63-0.1-0.63-0.22l-0.55-0.09l-0.12-0.13l-0.23-0.53
		l-0.43-0.4c-0.29-0.38-0.44-0.74-0.47-1.06c-0.18-0.29-0.37-0.85-0.55-1.68l-0.39-0.71v-0.4l-0.27-1.33l0.04-0.53l-0.23-1.37
		l0.12-1.1l-0.2-0.31l-0.39,1.1c-0.5,0.62-0.79,0.99-0.88,1.13c-0.09,0.13-0.2,0.2-0.33,0.2c-0.03,0-0.08-0.01-0.16-0.04l-0.23,0.49
		c-0.03,0.03-0.04,0.09-0.04,0.18c0,0.18,0.09,0.28,0.27,0.31c-0.05,0.06-0.18,0.26-0.39,0.62c-0.1,0.24-0.2,0.4-0.27,0.49
		l-0.12-0.22l-0.08,0.62c-0.34,0.29-0.57,0.74-0.7,1.33c-0.26,0.38-0.67,0.93-1.21,1.63l-0.51,0.62c-0.13,0-0.2,0.03-0.2,0.09v0.09
		c-0.16,0.41-0.43,0.74-0.82,0.97l-0.47,0.66h-0.27l-0.94,0.4c-0.78-0.06-1.27-0.44-1.45-1.15l-0.04-0.49L223,135.3v-0.49
		l-0.31-1.28v-0.4l-0.23-0.44l0.12-1.37c0-0.15,0-0.35,0-0.62c0-0.24,0-0.4,0-0.49v-0.27v-0.18l-0.2-0.49l0.31-0.84
		c-0.05-0.24-0.13-0.62-0.23-1.15l0.12-0.4l0.12-1.28l-0.31-0.93l0.08-0.75l-0.12-0.4c-0.03-0.09-0.12-0.37-0.27-0.84l-0.27,0.18
		l-0.51,0.71l-0.47,0.49l-0.94,1.33l-0.08,0.49l-0.67,0.79l-0.27,0.62l-0.27,0.35c-0.08,0.65-0.37,1.1-0.86,1.37l-0.04,0.62
		c-0.16,0.18-0.32,0.41-0.49,0.71c-0.17,0.29-0.29,0.46-0.35,0.51c-0.07,0.04-0.18,0.14-0.33,0.29l-0.47,0.75
		c0,0.5-0.17,0.85-0.51,1.06v0.27c-0.16,0.24-0.37,0.47-0.64,0.71l-0.04-0.09l-0.12,0.63c-0.21,0-0.41,0.28-0.6,0.85l-0.12,0.18
		c-0.03,0.48-0.25,0.83-0.68,1.07l-0.56,0.58c-0.42,0.24-0.7,0.36-0.83,0.36c-0.69,0-1.14-0.63-1.35-1.9l-0.16-0.97
		c-0.03-0.06-0.04-0.15-0.04-0.27c0-0.21,0.05-0.41,0.16-0.62l-0.16-0.84v-0.71v-0.71c0.05-0.62,0.14-1,0.27-1.15
		c-0.08-0.62-0.12-0.97-0.12-1.06v-0.8c0.1-0.21,0.23-0.47,0.39-0.8l-0.29-0.27c-0.07-0.24-0.1-0.37-0.1-0.4
		c0-0.21,0.18-0.56,0.55-1.06l-0.27-0.84l0.16-0.53l-0.23-1.28l0.08-0.62l-0.27-0.97l0.12-0.66l-0.27-0.8
		c0.51-1.15,1.06-1.73,1.64-1.73c0.31,0,0.6,0.15,0.88,0.44l0.08,0.44c0.43,0.26,0.65,0.66,0.65,1.19c0-0.09-0.04,0.22-0.12,0.93
		l-0.16-0.04l0.35,0.75l-0.3,0.35l-0.05,0.18l0.31,2.03l-0.08,1.72l-0.12,0.31l0.16,0.71c0.08,0.12,0.12,0.27,0.12,0.44
		c0,0.24-0.1,0.47-0.31,0.71c0,0.41-0.07,0.75-0.2,1.02l0.12,1.33v0.53l0.04-0.09l0.23-0.4l0.55-1.1h0.12
		c0.16,0,0.33-0.28,0.51-0.84l0.27-0.84c0.05-0.18,0.25-0.46,0.59-0.84l0.16-0.79l0.47-0.79l0.16-0.62
		c0.13-0.09,0.26-0.19,0.39-0.31l0.04-0.13c0.08-0.12,0.36-0.43,0.86-0.93l0.23-0.13l0.08-0.44l0.2-0.13
		c0.13-0.62,0.46-1.03,0.98-1.24l-0.16-0.13l0.16-0.09c-0.03-0.03-0.04-0.07-0.04-0.13c0-0.06,0.03-0.15,0.08-0.26l0.63-0.31
		l0.12-0.71h0.43c0-0.03,0.03-0.13,0.08-0.31l0.78-0.71c0.37-0.12,0.61-0.18,0.74-0.18c0.31,0,0.74,0.1,1.29,0.31l0.39,0.62
		l0.16,0.09l0.2,0.53l0.55,0.84v0.58l0.35,0.44v0.66c0.29,0.71,0.43,1.31,0.43,1.82l-0.12,0.53l0.23,0.75l-0.43,0.49l0.16,0.97
		l-0.04,0.27l-0.04,0.22c-0.05,0.3-0.08,0.52-0.08,0.66c0,0.15,0.06,0.44,0.2,0.89l-0.12,0.49l0.12,0.62l-0.12,0.13
		c0.05,0.41,0.13,1.11,0.23,2.08l-0.01,0.18l1.23-1.56l0.39-0.84c0.1-0.18,0.27-0.46,0.5-0.84v-0.09c0.1-0.47,0.27-0.8,0.51-0.97
		c0-0.18,0.13-0.4,0.39-0.66l0.31-0.22c0.1-0.5,0.38-0.91,0.82-1.24l0.2-0.62l0.35-0.53l0.39-0.44c0.23-0.21,0.42-0.53,0.55-0.97
		l0.31-0.53l0.16-0.66l0.43-0.27l0.43-0.62l0.43-1.06c-0.1,0-0.16-0.03-0.16-0.09l0.08-0.18l0.29-0.27l0.33-0.7
		c0.44-0.19,0.68-0.29,0.73-0.29l0.15,0.09l0.7,0.04l0.62,0.31l0.54,0.71l0.12,0.62l-0.04,0.49l-0.2,0.18l-0.43,0.93l-0.2,1.02
		c0.16,0.15,0.23,0.41,0.23,0.79c-0.08,0.15-0.12,0.34-0.12,0.57l-0.12,0.35c0,0.15,0,0.38,0,0.71c0,0.26-0.01,0.46-0.04,0.57
		l-0.16,0.22l0.2,0.31l-0.31,0.4c0.16,0,0.23,0.19,0.23,0.57c0.05,0.18,0.08,0.29,0.08,0.35c0,0.09,0,0.19,0,0.31
		c0,0.29,0,0.57,0,0.84v0.09c0,0.06,0.17,0.66,0.51,1.81l0.08,0.44l0.43,0.53l0.23,0.62l0.23,0.13l0.16,0.27l0.2,0.04l0.35,0.09
		l0.2-0.04h0.12c0.26,0,0.57-0.12,0.94-0.35c0.1-0.29,0.38-0.6,0.82-0.93c0.03-0.15,0.18-0.43,0.47-0.84l0.67-0.53l0.23-0.53
		c0.21-0.15,0.43-0.22,0.67-0.22c0.29,0,0.6,0.09,0.94,0.27C242.77,131.13,242.85,131.57,242.85,132.16z"/>
	<path d="M278.11,132.16c-0.13,0.41-0.3,0.72-0.51,0.93c-0.08,0.32-0.2,0.56-0.35,0.71c-0.13,0.29-0.29,0.5-0.47,0.62l-0.16,0.27
		c-0.1,0.18-0.25,0.26-0.43,0.26l-0.2,0.44h-0.27l-0.2,0.4l-0.31,0.13l-0.23,0.31l-0.2,0.18c-0.39,0-0.72,0.13-0.98,0.4
		c-0.34,0.15-0.69,0.22-1.06,0.22c-0.37,0-0.73-0.1-1.1-0.31c-0.42-0.03-0.63-0.1-0.63-0.22l-0.55-0.09l-0.12-0.13l-0.23-0.53
		l-0.43-0.4c-0.29-0.38-0.44-0.74-0.47-1.06c-0.18-0.29-0.37-0.85-0.55-1.68l-0.39-0.71v-0.4l-0.27-1.33l0.04-0.53l-0.23-1.37
		l0.12-1.1l-0.2-0.31l-0.39,1.1c-0.5,0.62-0.79,0.99-0.88,1.13c-0.09,0.13-0.2,0.2-0.33,0.2c-0.03,0-0.08-0.01-0.16-0.04l-0.23,0.49
		c-0.03,0.03-0.04,0.09-0.04,0.18c0,0.18,0.09,0.28,0.27,0.31c-0.05,0.06-0.18,0.26-0.39,0.62c-0.1,0.24-0.2,0.4-0.27,0.49
		l-0.12-0.22l-0.08,0.62c-0.34,0.29-0.57,0.74-0.7,1.33c-0.26,0.38-0.67,0.93-1.21,1.63l-0.51,0.62c-0.13,0-0.2,0.03-0.2,0.09v0.09
		c-0.16,0.41-0.43,0.74-0.82,0.97l-0.47,0.66h-0.27l-0.94,0.4c-0.78-0.06-1.27-0.44-1.45-1.15l-0.04-0.49l-0.23-0.57v-0.49
		l-0.31-1.28v-0.4l-0.23-0.44l0.12-1.37c0-0.15,0-0.35,0-0.62c0-0.24,0-0.4,0-0.49v-0.27v-0.18l-0.2-0.49l0.31-0.84
		c-0.05-0.24-0.13-0.62-0.23-1.15l0.12-0.4l0.12-1.28l-0.31-0.93l0.08-0.75l-0.12-0.4c-0.03-0.09-0.12-0.37-0.27-0.84l-0.27,0.18
		l-0.51,0.71l-0.47,0.49l-0.94,1.33l-0.08,0.49l-0.67,0.79l-0.27,0.62l-0.27,0.35c-0.08,0.65-0.37,1.1-0.86,1.37l-0.04,0.62
		c-0.16,0.18-0.32,0.41-0.49,0.71c-0.17,0.29-0.29,0.46-0.35,0.51c-0.07,0.04-0.18,0.14-0.33,0.29l-0.47,0.75
		c0,0.5-0.17,0.85-0.51,1.06v0.27c-0.16,0.24-0.37,0.47-0.64,0.71l-0.04-0.09l-0.12,0.63c-0.21,0-0.41,0.28-0.6,0.85l-0.12,0.18
		c-0.03,0.48-0.25,0.83-0.68,1.07l-0.56,0.58c-0.42,0.24-0.7,0.36-0.83,0.36c-0.69,0-1.14-0.63-1.35-1.9l-0.16-0.97
		c-0.03-0.06-0.04-0.15-0.04-0.27c0-0.21,0.05-0.41,0.16-0.62l-0.16-0.84v-0.71v-0.71c0.05-0.62,0.14-1,0.27-1.15
		c-0.08-0.62-0.12-0.97-0.12-1.06v-0.8c0.1-0.21,0.23-0.47,0.39-0.8l-0.29-0.27c-0.07-0.24-0.1-0.37-0.1-0.4
		c0-0.21,0.18-0.56,0.55-1.06l-0.27-0.84l0.16-0.53l-0.23-1.28l0.08-0.62l-0.27-0.97l0.12-0.66l-0.27-0.8
		c0.51-1.15,1.06-1.73,1.64-1.73c0.31,0,0.6,0.15,0.88,0.44l0.08,0.44c0.43,0.26,0.65,0.66,0.65,1.19c0-0.09-0.04,0.22-0.12,0.93
		l-0.16-0.04l0.35,0.75l-0.3,0.35l-0.05,0.18l0.31,2.03l-0.08,1.72l-0.12,0.31l0.16,0.71c0.08,0.12,0.12,0.27,0.12,0.44
		c0,0.24-0.1,0.47-0.31,0.71c0,0.41-0.07,0.75-0.2,1.02l0.12,1.33v0.53l0.04-0.09l0.23-0.4l0.55-1.1h0.12
		c0.16,0,0.33-0.28,0.51-0.84l0.27-0.84c0.05-0.18,0.25-0.46,0.59-0.84l0.16-0.79l0.47-0.79l0.16-0.62
		c0.13-0.09,0.26-0.19,0.39-0.31l0.04-0.13c0.08-0.12,0.36-0.43,0.86-0.93l0.23-0.13l0.08-0.44l0.2-0.13
		c0.13-0.62,0.46-1.03,0.98-1.24l-0.16-0.13l0.16-0.09c-0.03-0.03-0.04-0.07-0.04-0.13c0-0.06,0.03-0.15,0.08-0.26l0.63-0.31
		l0.12-0.71h0.43c0-0.03,0.03-0.13,0.08-0.31l0.78-0.71c0.37-0.12,0.61-0.18,0.74-0.18c0.31,0,0.74,0.1,1.29,0.31l0.39,0.62
		l0.16,0.09l0.2,0.53l0.55,0.84v0.58l0.35,0.44v0.66c0.29,0.71,0.43,1.31,0.43,1.82l-0.12,0.53l0.23,0.75l-0.43,0.49l0.16,0.97
		l-0.04,0.27l-0.04,0.22c-0.05,0.3-0.08,0.52-0.08,0.66c0,0.15,0.06,0.44,0.2,0.89l-0.12,0.49l0.12,0.62l-0.12,0.13
		c0.05,0.41,0.13,1.11,0.23,2.08l-0.01,0.18l1.23-1.56l0.39-0.84c0.1-0.18,0.27-0.46,0.5-0.84v-0.09c0.1-0.47,0.27-0.8,0.51-0.97
		c0-0.18,0.13-0.4,0.39-0.66l0.31-0.22c0.1-0.5,0.38-0.91,0.82-1.24l0.2-0.62l0.35-0.53l0.39-0.44c0.23-0.21,0.42-0.53,0.55-0.97
		l0.31-0.53l0.16-0.66l0.43-0.27l0.43-0.62l0.43-1.06c-0.1,0-0.16-0.03-0.16-0.09l0.08-0.18l0.29-0.27l0.33-0.7
		c0.44-0.19,0.68-0.29,0.73-0.29l0.15,0.09l0.7,0.04l0.62,0.31l0.54,0.71l0.12,0.62l-0.04,0.49l-0.2,0.18l-0.43,0.93l-0.2,1.02
		c0.16,0.15,0.23,0.41,0.23,0.79c-0.08,0.15-0.12,0.34-0.12,0.57l-0.12,0.35c0,0.15,0,0.38,0,0.71c0,0.26-0.01,0.46-0.04,0.57
		l-0.16,0.22l0.2,0.31l-0.31,0.4c0.16,0,0.23,0.19,0.23,0.57c0.05,0.18,0.08,0.29,0.08,0.35c0,0.09,0,0.19,0,0.31
		c0,0.29,0,0.57,0,0.84v0.09c0,0.06,0.17,0.66,0.51,1.81l0.08,0.44l0.43,0.53l0.23,0.62l0.23,0.13l0.16,0.27l0.2,0.04l0.35,0.09
		l0.2-0.04h0.12c0.26,0,0.57-0.12,0.94-0.35c0.1-0.29,0.38-0.6,0.82-0.93c0.03-0.15,0.18-0.43,0.47-0.84l0.67-0.53l0.23-0.53
		c0.21-0.15,0.43-0.22,0.67-0.22c0.29,0,0.6,0.09,0.94,0.27C278.03,131.13,278.11,131.57,278.11,132.16z"/>
	<path d="M290.99,130.93c0,0.68-0.1,1.1-0.31,1.28l-0.2,0.18l-0.2,0.62l-0.63,0.22c-0.18,0.47-0.46,0.84-0.82,1.1l-0.35,0.13
		l-0.51,0.62l-0.47,0.13c-0.18,0.53-0.56,0.81-1.14,0.84c-0.05,0.09-0.17,0.27-0.35,0.53c-0.39,0.29-0.8,0.47-1.21,0.53l-0.2,0.04
		l-0.27,0.4h-0.78l-0.63,0.53l-1.6-1.33l-0.74-1.72l-0.04-2.16l-0.16-0.53l0.47-3.89l0.16-0.18c-0.08-0.44-0.12-0.87-0.12-1.28
		c0-0.27,0.08-0.81,0.23-1.63l0.2-1.02c-0.05-0.18-0.16-0.37-0.31-0.57l0.23-0.84l0.08-1.02l0.08-0.13c-0.1-0.27-0.17-0.56-0.2-0.88
		c0.03-0.06,0.05-0.14,0.08-0.24c0.03-0.1,0.04-0.18,0.04-0.24c-0.08-0.26-0.12-0.51-0.12-0.75c0-0.71,0.35-1.03,1.06-0.97h0.47
		c0.31-0.15,0.51-0.22,0.59-0.22c0.52,0,0.87,0.32,1.06,0.97v0.18c0.1,0.35,0.16,0.69,0.16,1.02c0,0.26-0.03,0.46-0.08,0.57
		l-0.27,2.21l0.27,0.62c0,0.53-0.16,1-0.47,1.41l0.16,0.53l-0.51,1.68c-0.05,0.74-0.12,1.3-0.2,1.68v1.1l-0.23,0.62l0.04,0.44
		l-0.08,1.02l0.08,0.79l0.59,0.53l0.47-0.09l0.08-0.13l0.31,0.04l0.51-0.18l0.43-0.49l0.16-0.27l0.27-0.04l0.08-0.22l0.12-0.18
		l0.23,0.18l0.39-0.44l0.23,0.04l0.08-0.31l0.08,0l0.11-0.36l0.35-0.18l0.75-0.4c0.6-0.47,1.19-0.71,1.77-0.71h0.16
		C290.69,130.34,290.88,130.6,290.99,130.93z M287,107.51c0,0.35-0.21,0.67-0.63,0.97v0.09c-0.5,0.67-0.93,1.06-1.29,1.14
		l-0.59,0.79l-0.39,0.57l-0.9,0.25l-0.39,0.63l-0.62,0.36l-1.02,1.03l-0.62-0.66l0.12-1.1l0.43-0.79c0.03-0.41,0.23-0.77,0.63-1.06
		v-0.18l0.23-0.18l0.04-0.66l0.63-0.18v-0.4l0.47-0.09c0.1-0.59,0.33-1.02,0.67-1.28l0.12-0.09l0.23-0.27l0.31-1.06
		C286.13,105.82,287,106.54,287,107.51z"/>
	<path d="M318.11,130.22c0,0.24-0.17,0.54-0.51,0.93l-0.43,0.75l-0.16,0.88l-0.35,0.13l-0.08,0.27c-0.42,0.15-0.72,0.52-0.9,1.1
		c-0.29,0.41-0.6,0.71-0.94,0.88c-0.13,0.15-0.25,0.25-0.35,0.31l-0.2,0.4l-0.35,0.09l-1.02,0.62l-1.33,0.18l-0.35-0.09l-0.59,0.13
		l-0.23-0.31c-0.37-0.21-0.63-0.41-0.78-0.62c-0.31-0.09-0.55-0.37-0.71-0.84c-0.44-0.59-0.66-1.06-0.66-1.41v-0.13l-0.28-0.53
		l-0.08-0.09l-0.23-0.8l-0.35-0.84l0.08-1.02l-0.39-0.57l-0.59-3.8c-0.08-0.5-0.12-0.93-0.12-1.28l-0.08-0.22l-0.2-0.31l-0.36,0.53
		l-1.43,1.67l-0.52,0.92l-0.25,0.63l-0.42,0.71l-0.31,0.35l0.04,0.22l-0.55,1.37l-0.31,0.44l-0.39,0.09l-0.35,0.4
		c0,0.59-0.25,0.97-0.74,1.15l-0.08,0.09c-0.23,0.65-0.5,1.05-0.78,1.19l-0.35,0.62c-0.57,0.59-0.95,0.96-1.13,1.1
		c-0.08,0.29-0.22,0.54-0.43,0.75c-0.05,0.09-0.14,0.21-0.28,0.35c-0.08,0.5-0.44,0.85-1.1,1.06l-0.43,0.13
		c-0.52-0.03-0.95-0.37-1.29-1.02l-0.59-1.1l0.23-1.06l-0.12-0.57l0.08-0.09l0.04-0.57l-0.43-1.06l0.31-0.53l-0.16-0.57l0.3-0.62
		l0.09-1.02l-0.12-0.18l0.23-0.62l-0.09-0.31l-0.03-0.71l0.12-1.33c-0.08-0.29-0.12-0.49-0.12-0.57c0-0.06,0-0.12,0-0.18
		c0-0.09,0-0.15,0-0.18l-0.12-0.35l0.12-1.41v-0.49v-0.71v-1.19l0.69-1.33c0.79,0.15,1.33,0.35,1.64,0.6
		c0.3,0.25,0.46,0.7,0.46,1.35v0.4l0.31,0.53l-0.16,0.93l0.16,1.77l-0.27,0.84l0.12,0.93v0.75l-0.35,0.49l0.35,0.79l-0.3,0.49
		l-0.05,0.49l0.23,0.49l-0.31,0.93l-0.12,0.4v0.4l0.2,0.44l0.67-0.75c0-0.44,0.13-0.74,0.39-0.88c0.03-0.29,0.13-0.51,0.31-0.66
		l-0.12-0.13l0.51-0.53l0.12-0.18v-0.4l0.62-0.53l0.16-0.44l0.35-0.27l1.53-1.94c-0.13,0.18-0.56,0.72-1.29,1.63v0.09l0.08-0.31
		l0.51-0.66l0.35-0.75v-0.44l0.59-0.22l0.08-0.57l0.16-0.18l0.04-0.22v-0.31l0.55-0.62c0-0.06,0-0.13,0-0.22
		c-0.03-0.09-0.04-0.15-0.04-0.18c0-0.53,0.26-0.82,0.78-0.88c0.24-0.53,0.59-0.84,1.06-0.93l0.23-0.4l0.08-0.09
		c0.23-0.38,0.59-0.65,1.06-0.79l0.35-0.49h0.94l0.47,0.62l0.43,0.27l0.04,0.13l0.28,0.09l0.08,0.93l0.66,0.44l-0.27,0.97l0.43,1.06
		v1.24l0.31,1.68l0.08,1.59l0.35,0.93l0.23,1.15c0.16,0.18,0.28,0.43,0.35,0.75l0.71,0.22v0.88l0.39,0.49v0.13l0.16,0.04l0.16,0.27
		l0.16-0.22c-0.05,0,0.01,0.02,0.2,0.04c0.29,0,0.59-0.29,0.9-0.88l0.47-0.12l0.12-0.23c0.08-0.24,0.23-0.42,0.47-0.54l0.27,0.04
		l0.16-0.18l0.04-0.22l0.12-0.18c0.26-0.21,0.43-0.52,0.51-0.93l0.43-0.53l0.08-0.4l0.27-0.71l0.74-0.31l1.06,0.4l0.35,1.28
		c0,0.03,0.01,0.06,0.04,0.09C318.11,130.15,318.11,130.19,318.11,130.22z"/>
	<path d="M338.27,131.9l-0.39,1.63l0.16,0.53l-0.16,0.13c0.16,0.26,0.23,0.53,0.23,0.79c0,0.18-0.04,0.35-0.12,0.53v0.09
		c0,0.35-0.12,1.8-0.35,4.33l-0.08,0.84v0.18l-0.08,0.18l-0.04,0.18l0.04,0.27l-0.12,0.13l-0.12,0.26h-0.16l0.04,0.22l-0.08,0.27
		c0,0.21-0.07,0.41-0.2,0.62l-0.2,0.71c-0.08,0.32-0.21,0.62-0.39,0.88c-0.18,0.38-0.51,0.9-0.98,1.55l-0.67,0.57l-0.74,0.71
		l-0.59,0.31l-0.47,0.4l-0.31,0.09c-0.52,0.32-1.11,0.51-1.76,0.57l-0.23-0.04l-0.35,0.18v0.09c-0.44,0.12-0.82,0.18-1.13,0.18
		h-1.53l-0.94-0.22l-0.82,0.22l-0.39-0.4l-1.17-0.13l-0.78-0.8l-0.59-0.36c-1.04-0.45-1.64-1.23-1.8-2.36l0.08-0.18l-0.12-0.71
		c0.31-0.56,0.6-0.86,0.86-0.89c0.21-0.15,0.42-0.22,0.63-0.22c0.96,0.18,1.71,0.28,2.23,0.31l-0.08,0.66l0.47,0.35v0.53l-0.31,0.44
		l1.8,0.62l0.9-0.22v0.31l0.27-0.09h0.08c0.03,0,0.2,0.03,0.51,0.09l0.04,0.18l0.39-0.22c0.31-0.18,0.94-0.27,1.87-0.27
		c0.16-0.12,0.29-0.24,0.39-0.35c0.03,0,0.09,0.01,0.2,0.04c0.1,0,0.18,0,0.23,0c0.16,0,0.31-0.18,0.47-0.53
		c0.03,0.09,0.08,0.13,0.16,0.13c0.05,0,0.12-0.03,0.2-0.09s0.13-0.09,0.16-0.09l0.08-0.02l1.27-1.21l0.57-1.02l0.04-0.57l0.42-0.62
		l0.04-0.58l0.23-0.53l0.19-1.19l0.31-1.1c0-0.18,0-0.44,0-0.8c0-0.65,0.08-1.3,0.24-1.94l-0.24-0.71v-2.17l-0.23-0.75v-1.24
		l-0.31-0.93v-1.41l-0.04-0.22l-0.27,0.09l-0.23,0.67l-0.59,0.58l-0.7,1.29l-1.02,0.8l-1.09,1.29c-0.62,0.74-1.35,1.39-2.19,1.95
		l-0.39,0.53l-0.59,0.4l-0.55,0.31l-0.51,0.58l-0.62,0.36c-0.21,0.24-0.51,0.4-0.9,0.49c-0.57,0.44-1.22,0.67-1.95,0.67h-0.43
		c-0.13,0-0.31,0-0.55,0c-0.21,0-0.36-0.02-0.47-0.04l-0.7-0.04l-1.02-1.1l-0.74-1.1l-0.31-0.93L318.9,133l0.16-1.28l0.39-1.5
		l-0.08-0.49l0.35-1.37l0.35-0.79c0.1-0.38,0.16-0.84,0.16-1.37l0.86-1.81c0.08-0.24,0.27-0.49,0.59-0.75l0.39-0.75l0.47-0.57
		c0.1-0.38,0.31-0.72,0.63-1.02c0.21-0.12,0.36-0.34,0.45-0.66c0.09-0.32,0.58-0.62,1.47-0.88l-0.2,0.04l0.2-0.09
		c0.08-0.15,0.26-0.44,0.55-0.88l0.47,0.09l0.35-0.27c0.42-0.41,0.86-0.62,1.33-0.62h0.27l1.02-0.44l0.59,0.22h0.7l0.43,0.27
		c0.26,0.03,0.47,0.16,0.63,0.4l0.55,0.62l0.16,0.09l0.08,0.18l0.35,0.62l0.04,0.22l-0.12,0.7l0.08,0.48l-0.5,0.88l-1.12,0.18
		l-0.6-1.05l-0.56-0.21l-0.27-0.31l-0.39-0.01c-0.13,0.06-0.41,0.21-0.83,0.44l-0.04,0.35h-0.98c-0.26,0.44-0.55,0.68-0.86,0.71
		c-0.16,0.12-0.31,0.22-0.47,0.31l-0.31,0.84l-0.28,0.04l-0.04,0.4l-0.55-0.01l-0.49,0.94l-0.43,0.31l-0.16,0.62l-0.59,0.93
		l-0.08,0.89l-0.47,0.53l-0.43,1.9l-0.31,0.35l0.05,0.49l-0.48,1.68l0.12,0.53l-0.04,0.53c0.18,0.29,0.27,0.6,0.27,0.93l0.27,0.09
		l0.12,0.27c0.44,0,0.73,0.06,0.86,0.18c0.24-0.21,0.87-0.43,1.92-0.66c0.16-0.41,0.38-0.71,0.67-0.91
		c0.29-0.19,0.87-0.55,1.76-1.08l0.12,0.04c0-0.24,0.08-0.46,0.24-0.66c0.39-0.18,0.63-0.29,0.7-0.35c0.21-0.15,0.33-0.34,0.35-0.57
		l0.63-0.18l0.39-0.4l0.98-1.5l0.27,0.18c0.03-0.09,0.31-0.49,0.86-1.19l0.94-1.24l0.08-0.57c0.31-0.32,0.68-1.27,1.1-2.83
		l-0.2-0.93l-0.31-0.62l0.23-0.66l-0.31-0.49l-0.08-0.62l-0.12-0.44l0.39-0.8c0.42-0.24,0.72-0.35,0.9-0.35
		c0.23,0,0.55,0.13,0.94,0.4l0.27,0.57l0.51,0.44l0.08,0.97c0.08,0.26,0.17,0.66,0.27,1.19c0.13,0.27,0.2,0.57,0.2,0.93v0.31
		l0.08,0.27l0.43,0.71l-0.12,0.79l0.24,0.35c0.08,0.21,0.12,0.43,0.12,0.66c0,0.21-0.01,0.37-0.04,0.49l0.43,0.13l-0.35,1.1
		l0.16,0.84c0.13,0.29,0.2,0.56,0.2,0.79c0,0.24-0.07,0.53-0.2,0.88l0.23,0.22L338.27,131.9z"/>
	<path d="M367.51,133.75l-0.47,0.62l-0.43,1.15l-0.31,0.27l-0.27,0.62l-0.78,0.09l-0.51,0.57h-0.78l-0.47,0.44l-0.43-0.13
		l-0.51,0.13v0.35l-1.45-0.13h-0.63l-0.47,0.31l-0.39-0.27c0.26-0.03,0.47-0.04,0.63-0.04c-0.21,0.02-0.84,0.07-1.88,0.13
		l-0.12-0.07l-0.31-0.07l-0.51,0.31c-0.16-0.08-0.44-0.16-0.86-0.25c-0.57-0.04-0.95-0.06-1.13-0.06h-0.31
		c-0.18-0.09-0.38-0.13-0.59-0.13s-0.42,0.04-0.63,0.13l-0.55-0.39l-0.31-0.09c-0.08,0-0.22-0.04-0.43-0.13
		c-0.97-0.12-1.45-1.02-1.45-2.71v-0.39l0.74-0.61l0.94-0.39l0.7,0.4h0.55v0.13c0.26,0.12,0.47,0.35,0.63,0.71l0.31,0.04v0.57
		l0.51,0.13l0.12,0.09l5.01-0.35l1.21-0.22h0.12l0.08-0.22l0.55-0.09l0.08-0.13c0.55-0.09,1.06-0.27,1.53-0.53l0.04-0.22
		c-0.03-0.03-0.08-0.13-0.16-0.31l-0.2,0.04l-0.51-0.44h-0.35l-0.2-0.31l0.12-0.18l-0.43,0.09l-0.31-0.35c-0.08,0-0.21,0-0.39,0
		c-0.34,0-0.68-0.07-1.02-0.22h-0.35l-0.27-0.13l-0.55,0.22l-0.31-0.4h-0.12l-0.55-0.49l-1.21-0.53l-0.39-0.35l-1.49-0.31
		l-0.16-0.31l-1.1-0.79l-0.59-1.46l-0.47-0.75l-0.16-2.3l0.16-0.27c0.05-0.68,0.26-1.27,0.63-1.77c0.39-0.24,0.59-0.57,0.59-1.02
		l0.59-0.13c0.1-0.24,0.31-0.46,0.63-0.66l0.59-0.53l2.47-1.06l0.43-0.13l0.78-0.09l1.29-0.4l2.47,0.18l0.08,0.22
		c0.24,0.09,0.5,0.32,0.78,0.71v0.22l0.63,0.44l-0.27,1.06l-0.08,0.4c-0.16,0.74-0.52,1.1-1.1,1.1c-0.47,0-0.82-0.25-1.06-0.75
		v-0.13l-0.46,0l-0.55,0.17l-0.51-0.44l-0.28,0.23c-0.34,0-0.66,0.12-0.94,0.37c-0.39,0-0.77,0.18-1.14,0.55l-0.51-0.01l-0.35,0.26
		l-0.54,0.13l-0.08,0.09l-0.23,0.13l-0.35,0.4l-0.12,0.04l-0.35,0.62l-0.43,0.27c-0.1,0.38-0.17,0.71-0.2,0.97
		c0.03,0.41,0.07,0.69,0.14,0.82c0.06,0.13,0.24,0.27,0.53,0.42v0.22l0.51,0.31c0.42,0.18,0.73,0.37,0.94,0.58l0.78,0l0.5,0.5
		l0.9,0.13l0.35,0.26l1.53,0.48l0.2,0.48l0.16-0.31c0.34,0,0.8,0.18,1.37,0.53l0.71,0.13l0.08,0.31h0.63l1.1,0.71
		c0.13,0.38,0.42,0.74,0.86,1.06l0.43,0.31l-0.12,0.53c0.18,0.29,0.27,0.6,0.27,0.93V133.75z"/>
	<path d="M384.42,127.04l-0.23,0.8c0,0.77-0.04,1.37-0.12,1.81l-0.23,0.44v0.49l-0.2,0.31l-0.12,0.62l-0.43,0.49l-0.27,1.1
		l-0.31,0.13l-0.16,0.49l-0.47,0.31l-0.31,0.75l-0.47,0.26l-0.04,0.53l-0.74,0.31c-0.34,0.53-0.76,0.87-1.25,1.02l-0.16,0.04
		c-0.37,0.62-0.85,0.93-1.45,0.93c-0.26,0.18-0.56,0.27-0.9,0.27l-0.39,0.31l-0.39,0.13l-0.51,0.44h-0.51l-0.55,0.13l-0.67-0.31
		l-1.68-0.13l-0.59-1.02l-0.86-1.02l0.2-0.71l-0.59-1.5l0.2-0.57l-0.12-1.06l0.12-0.66c0-0.41,0-0.71,0-0.88
		c0-0.56,0.13-0.97,0.41-1.24c0.03-0.29,0.2-0.78,0.53-1.46h0.2l-0.12-0.31l0.12-0.62V127c0.21-0.27,0.33-0.44,0.35-0.53l-0.12-0.62
		v-0.18c0.18-0.41,0.27-0.84,0.27-1.28l0.82-1.28c0.13-0.12,0.22-0.21,0.27-0.27l-0.04-0.18h0.16l0.59-0.75l0.04-1.02l0.98-0.4
		c0.37-0.27,0.6-0.71,0.7-1.33h0.51c0.29-0.18,0.55-0.26,0.78-0.26c0.24,0,0.46,0.06,0.67,0.18l0.43,0.04l1.02-0.44l0.55,0.57
		l0.43,0.31h0.31l0.59,0.35h0.31c0.34,0.35,0.73,0.84,1.17,1.46l0.08,0.22l0.27,0.18l0.82,1.19l0.74,2.08v0.44L384.42,127.04z
		 M381.83,128.08l-0.04-0.22c-0.18-0.21-0.29-0.43-0.31-0.66l0.12-0.22l-0.35-0.84l0.08-0.84l-0.16-0.22
		c-0.34-0.29-0.52-0.53-0.55-0.71c-0.23-0.12-0.35-0.41-0.35-0.88l-0.24-0.04l-0.47-0.88l-0.35-0.31l-0.82-0.35l-0.31-0.09
		c-0.16,0-0.26-0.06-0.31-0.18l-0.78,0.97l-0.51,1.23l-0.82,0.48l-0.12,0.48l-0.39,0.22l-0.16,1.14l-0.47,0.26
		c-0.1,0.41-0.16,0.79-0.16,1.14l-0.63,0.66l0.2,0.13c0,0.35-0.13,0.66-0.39,0.92c-0.09,0.26-0.2,0.56-0.35,0.88v0.35v0.18v0.53
		l-0.43,1.19l0.08,0.22v1.23l-0.16,0.61l0.04,0.61l0.35,0.57l0.55,0.22l0.19,0.09h0.31h1.02l0.16-0.44h0.16
		c0.16,0,0.25,0.04,0.27,0.13l0.35-0.13l0.31,0.13l0.51-0.4l0.08-0.13l0.35-0.09c0.18-0.33,0.61-0.65,1.29-0.98l0.08-0.22l0.78-0.62
		l0.43-0.71l0.63-0.35l0.04-0.22l0.2-0.49v-0.57l0.47-0.44l0.16-0.31l0.2-0.26c-0.1-0.35-0.16-0.6-0.16-0.75
		c0-0.26,0.08-0.54,0.24-0.84L381.83,128.08z"/>
	<path d="M401.13,127.04l-0.23,0.8c0,0.77-0.04,1.37-0.12,1.81l-0.23,0.44v0.49l-0.2,0.31l-0.12,0.62l-0.43,0.49l-0.27,1.1
		l-0.31,0.13l-0.16,0.49l-0.47,0.31l-0.31,0.75l-0.47,0.26l-0.04,0.53l-0.74,0.31c-0.34,0.53-0.76,0.87-1.25,1.02l-0.16,0.04
		c-0.37,0.62-0.85,0.93-1.45,0.93c-0.26,0.18-0.56,0.27-0.9,0.27l-0.39,0.31l-0.39,0.13l-0.51,0.44h-0.51l-0.55,0.13l-0.67-0.31
		l-1.68-0.13l-0.59-1.02l-0.86-1.02l0.2-0.71l-0.59-1.5l0.2-0.57l-0.12-1.06l0.12-0.66c0-0.41,0-0.71,0-0.88
		c0-0.56,0.13-0.97,0.41-1.24c0.03-0.29,0.2-0.78,0.53-1.46h0.2l-0.12-0.31l0.12-0.62V127c0.21-0.27,0.33-0.44,0.35-0.53l-0.12-0.62
		v-0.18c0.18-0.41,0.27-0.84,0.27-1.28l0.82-1.28c0.13-0.12,0.22-0.21,0.27-0.27l-0.04-0.18h0.16l0.59-0.75l0.04-1.02l0.98-0.4
		c0.37-0.27,0.6-0.71,0.7-1.33h0.51c0.29-0.18,0.55-0.26,0.78-0.26c0.24,0,0.46,0.06,0.67,0.18l0.43,0.04l1.02-0.44l0.55,0.57
		l0.43,0.31h0.31l0.59,0.35h0.31c0.34,0.35,0.73,0.84,1.17,1.46l0.08,0.22l0.27,0.18l0.82,1.19l0.74,2.08v0.44L401.13,127.04z
		 M398.55,128.08l-0.04-0.22c-0.18-0.21-0.29-0.43-0.31-0.66l0.12-0.22l-0.35-0.84l0.08-0.84l-0.16-0.22
		c-0.34-0.29-0.52-0.53-0.55-0.71c-0.23-0.12-0.35-0.41-0.35-0.88l-0.24-0.04l-0.47-0.88l-0.35-0.31l-0.82-0.35l-0.31-0.09
		c-0.16,0-0.26-0.06-0.31-0.18l-0.78,0.97l-0.51,1.23l-0.82,0.48l-0.12,0.48l-0.39,0.22l-0.16,1.14l-0.47,0.26
		c-0.1,0.41-0.16,0.79-0.16,1.14l-0.63,0.66l0.2,0.13c0,0.35-0.13,0.66-0.39,0.92c-0.09,0.26-0.2,0.56-0.35,0.88v0.35v0.18v0.53
		l-0.43,1.19l0.08,0.22v1.23l-0.16,0.61l0.04,0.61l0.35,0.57l0.55,0.22l0.19,0.09h0.31h1.02l0.16-0.44h0.16
		c0.16,0,0.25,0.04,0.27,0.13l0.35-0.13l0.31,0.13l0.51-0.4l0.08-0.13l0.35-0.09c0.18-0.33,0.61-0.65,1.29-0.98l0.08-0.22l0.78-0.62
		l0.43-0.71l0.63-0.35l0.04-0.22l0.2-0.49v-0.57l0.47-0.44l0.16-0.31l0.2-0.26c-0.1-0.35-0.16-0.6-0.16-0.75
		c0-0.26,0.08-0.54,0.24-0.84L398.55,128.08z"/>
	<path d="M429,130.22c0,0.24-0.17,0.54-0.51,0.93l-0.43,0.75l-0.16,0.88l-0.35,0.13l-0.08,0.27c-0.42,0.15-0.72,0.52-0.9,1.1
		c-0.29,0.41-0.6,0.71-0.94,0.88c-0.13,0.15-0.25,0.25-0.35,0.31l-0.2,0.4l-0.35,0.09l-1.02,0.62l-1.33,0.18l-0.35-0.09l-0.59,0.13
		l-0.24-0.31c-0.37-0.21-0.63-0.41-0.78-0.62c-0.31-0.09-0.55-0.37-0.71-0.84c-0.44-0.59-0.67-1.06-0.67-1.41v-0.13l-0.27-0.53
		l-0.08-0.09l-0.23-0.8l-0.35-0.84l0.08-1.02l-0.39-0.57l-0.59-3.8c-0.08-0.5-0.12-0.93-0.12-1.28l-0.08-0.22l-0.2-0.31l-0.36,0.53
		l-1.43,1.67l-0.52,0.92l-0.25,0.63l-0.42,0.71l-0.31,0.35l0.04,0.22l-0.55,1.37l-0.31,0.44l-0.39,0.09l-0.35,0.4
		c0,0.59-0.25,0.97-0.74,1.15l-0.08,0.09c-0.23,0.65-0.5,1.05-0.78,1.19l-0.35,0.62c-0.57,0.59-0.95,0.96-1.13,1.1
		c-0.08,0.29-0.22,0.54-0.43,0.75c-0.05,0.09-0.14,0.21-0.27,0.35c-0.08,0.5-0.44,0.85-1.1,1.06l-0.43,0.13
		c-0.52-0.03-0.95-0.37-1.29-1.02l-0.59-1.1l0.24-1.06l-0.12-0.57l0.08-0.09l0.04-0.57l-0.43-1.06l0.31-0.53l-0.16-0.57l0.3-0.62
		l0.09-1.02l-0.12-0.18l0.23-0.62l-0.09-0.31l-0.03-0.71l0.12-1.33c-0.08-0.29-0.12-0.49-0.12-0.57c0-0.06,0-0.12,0-0.18
		c0-0.09,0-0.15,0-0.18l-0.12-0.35l0.12-1.41v-0.49v-0.71v-1.19l0.68-1.33c0.79,0.15,1.33,0.35,1.64,0.6
		c0.3,0.25,0.46,0.7,0.46,1.35v0.4l0.31,0.53l-0.16,0.93l0.16,1.77l-0.27,0.84l0.12,0.93v0.75l-0.35,0.49l0.35,0.79l-0.3,0.49
		l-0.05,0.49l0.24,0.49l-0.31,0.93l-0.12,0.4v0.4l0.2,0.44l0.67-0.75c0-0.44,0.13-0.74,0.39-0.88c0.03-0.29,0.13-0.51,0.31-0.66
		l-0.12-0.13l0.51-0.53l0.12-0.18v-0.4l0.63-0.53l0.16-0.44l0.35-0.27l1.53-1.94c-0.13,0.18-0.56,0.72-1.29,1.63v0.09l0.08-0.31
		l0.51-0.66l0.35-0.75v-0.44l0.59-0.22l0.08-0.57l0.16-0.18l0.04-0.22v-0.31l0.55-0.62c0-0.06,0-0.13,0-0.22
		c-0.03-0.09-0.04-0.15-0.04-0.18c0-0.53,0.26-0.82,0.78-0.88c0.24-0.53,0.59-0.84,1.06-0.93l0.23-0.4l0.08-0.09
		c0.24-0.38,0.59-0.65,1.06-0.79l0.35-0.49h0.94l0.47,0.62l0.43,0.27l0.04,0.13l0.27,0.09l0.08,0.93l0.67,0.44l-0.27,0.97l0.43,1.06
		v1.24l0.31,1.68l0.08,1.59l0.35,0.93l0.23,1.15c0.16,0.18,0.27,0.43,0.35,0.75l0.71,0.22v0.88l0.39,0.49v0.13l0.16,0.04l0.16,0.27
		l0.16-0.22c-0.05,0,0.01,0.02,0.2,0.04c0.29,0,0.59-0.29,0.9-0.88l0.47-0.12l0.12-0.23c0.08-0.24,0.23-0.42,0.47-0.54l0.27,0.04
		l0.16-0.18l0.04-0.22l0.12-0.18c0.26-0.21,0.43-0.52,0.51-0.93l0.43-0.53l0.08-0.4l0.27-0.71l0.74-0.31l1.06,0.4l0.35,1.28
		c0,0.03,0.01,0.06,0.04,0.09C429,130.15,429,130.19,429,130.22z"/>
</g>
<g>
	<path d="M350.01,175.33l-0.32,0.42l-0.29,0.78l-0.21,0.18l-0.19,0.42l-0.53,0.06l-0.35,0.39h-0.53l-0.32,0.3l-0.29-0.09l-0.35,0.09
		v0.24l-0.98-0.09h-0.43l-0.32,0.21l-0.27-0.18c0.18-0.02,0.32-0.03,0.43-0.03c-0.14,0.01-0.57,0.04-1.28,0.09l-0.08-0.04
		l-0.21-0.04l-0.35,0.21c-0.11-0.05-0.3-0.11-0.58-0.17c-0.39-0.03-0.65-0.04-0.77-0.04h-0.21c-0.12-0.06-0.26-0.09-0.4-0.09
		c-0.14,0-0.28,0.03-0.43,0.09l-0.37-0.27l-0.21-0.06c-0.05,0-0.15-0.03-0.29-0.09c-0.66-0.08-0.98-0.69-0.98-1.84v-0.27l0.51-0.42
		l0.64-0.27l0.48,0.27h0.37v0.09c0.18,0.08,0.32,0.24,0.43,0.48l0.21,0.03v0.39l0.35,0.09l0.08,0.06l3.4-0.24l0.82-0.15h0.08
		l0.05-0.15l0.37-0.06l0.05-0.09c0.37-0.06,0.72-0.18,1.04-0.36l0.03-0.15c-0.02-0.02-0.05-0.09-0.11-0.21l-0.13,0.03l-0.35-0.3
		h-0.24l-0.13-0.21l0.08-0.12l-0.29,0.06l-0.21-0.24c-0.05,0-0.14,0-0.27,0c-0.23,0-0.46-0.05-0.69-0.15h-0.24l-0.19-0.09
		l-0.37,0.15l-0.21-0.27h-0.08l-0.37-0.33l-0.82-0.36l-0.27-0.24l-1.01-0.21l-0.11-0.21l-0.75-0.54l-0.4-0.99l-0.32-0.51l-0.11-1.56
		l0.11-0.18c0.04-0.46,0.18-0.86,0.43-1.2c0.27-0.16,0.4-0.39,0.4-0.69l0.4-0.09c0.07-0.16,0.21-0.31,0.42-0.45l0.4-0.36l1.67-0.72
		l0.29-0.09l0.53-0.06l0.88-0.27l1.67,0.12l0.05,0.15c0.16,0.06,0.34,0.22,0.53,0.48v0.15l0.43,0.3l-0.19,0.72l-0.05,0.27
		c-0.11,0.5-0.35,0.75-0.74,0.75c-0.32,0-0.56-0.17-0.72-0.51v-0.09l-0.31,0l-0.37,0.12l-0.35-0.3l-0.19,0.16
		c-0.23,0-0.45,0.08-0.64,0.25c-0.27,0-0.53,0.12-0.78,0.37l-0.35-0.01l-0.24,0.18l-0.37,0.09l-0.05,0.06l-0.16,0.09l-0.24,0.27
		l-0.08,0.03l-0.24,0.42l-0.29,0.18c-0.07,0.26-0.12,0.48-0.13,0.66c0.02,0.28,0.05,0.47,0.09,0.56c0.04,0.09,0.16,0.19,0.36,0.29
		v0.15l0.35,0.21c0.28,0.12,0.5,0.25,0.64,0.39l0.53,0l0.34,0.34l0.61,0.09l0.24,0.18l1.04,0.33l0.13,0.33l0.11-0.21
		c0.23,0,0.54,0.12,0.93,0.36l0.48,0.09l0.05,0.21h0.42l0.75,0.48c0.09,0.26,0.28,0.5,0.58,0.72l0.29,0.21l-0.08,0.36
		c0.12,0.2,0.19,0.41,0.19,0.63V175.33z"/>
	<path d="M360.48,175.33c0,0.24-0.16,0.54-0.48,0.9c-0.09,0.32-0.22,0.58-0.4,0.78l-0.16,0.03l-0.29,0.57l-0.48,0.09l-0.5,0.36
		l-0.27,0.54h-0.29c-0.2,0.09-0.35,0.14-0.48,0.16l-0.16,0.23c-0.05,0-0.13,0-0.24,0c-0.23,0-0.45,0.17-0.67,0.51l-0.37-0.36
		c-0.07,0-0.18,0-0.32,0c-0.23,0-0.43-0.05-0.58-0.15h-0.45l-0.21-0.15c-0.67-0.12-1.1-0.41-1.28-0.86v-0.09l-0.32-0.18l-0.16-0.51
		l-0.32-0.24v-0.45l-0.32-1.31v-1.07l0.16-0.48v-0.62l0.13-0.48l-0.03-0.21l0.19-0.36l-0.05,0.06c0-0.18,0.04-0.37,0.13-0.57v-0.15
		l-0.08-0.72c0-0.34,0.13-0.64,0.4-0.9c0.02-0.04,0.03-0.1,0.03-0.18c0-0.08-0.03-0.24-0.09-0.5c-0.06-0.25-0.09-0.42-0.09-0.52
		c0-0.24,0.05-0.49,0.16-0.75c0.14,0.24,0.35,0.36,0.61,0.36h0.08c0.04-0.08,0.12-0.17,0.24-0.27c0.14-0.5,0.34-0.92,0.58-1.26
		l0.11-0.12c0-0.08,0.05-0.31,0.16-0.69h0.21l0.05-0.15l0.21-0.06c0.09-0.16,0.15-0.25,0.17-0.29c0.03-0.03,0.22-0.15,0.57-0.38
		c0.07-0.14,0.18-0.27,0.32-0.39c0.07-0.04,0.16-0.08,0.27-0.12l0.11-0.18c0.48-0.18,0.78-0.27,0.9-0.27c0.14,0,0.27,0.04,0.4,0.12
		l0.13-0.03l0.19,0.12c0.21,0.18,0.42,0.33,0.64,0.45l0.45,0.39v0.12c0.41,0.36,0.61,0.87,0.61,1.53l-0.08,0.3l0.08,0.99l-0.24,0.18
		l-0.27,0.78l-0.5,0.63l-0.03,0.48c-0.57,0.46-1.09,0.83-1.57,1.11c-0.16,0.28-0.41,0.42-0.74,0.42h-0.08l-0.5,0.36h-0.42l-0.64,0.3
		l-0.48-0.27h-0.05c-0.04,0.16-0.07,0.4-0.11,0.72l-0.21,0.18l-0.03,0.36l-0.16,0.51c0.04,0.48,0.05,0.79,0.05,0.94l-0.09,0.09
		c0,0.26-0.01,0.45-0.02,0.57c0,0.02-0.01,0.05-0.02,0.09c0,0.04,0,0.07,0,0.09c0,0.16,0.07,0.29,0.21,0.39
		c0.05,0.24,0.14,0.39,0.27,0.45l0.19,0.18l0.58,0.18v0.09l0.21,0.06h0.9l0.53-0.09l0.27-0.21l0.16-0.06l0.27-0.44l0.13-0.03
		l0.67-0.24c0.07-0.14,0.19-0.26,0.34-0.36l0.08-0.15c0.35-0.08,0.56-0.29,0.61-0.62c0.25-0.28,0.57-0.42,0.96-0.42h0.11
		C360.31,174.69,360.48,175.05,360.48,175.33z M357.85,166.69c0-0.06-0.03-0.18-0.08-0.36l-0.13-0.03l-0.05,0.03
		c-0.02,0-0.05,0-0.11,0c-0.04,0.02-0.07,0.03-0.11,0.03c-0.02,0-0.04-0.01-0.08-0.03c-0.04,0-0.06,0-0.08,0l-0.27,0.21l-0.24,0.03
		l-0.13,0.06l-0.45,0.66l-0.29,0.24l-0.42,0.84l-0.24,0.18c-0.05,0.34-0.18,0.63-0.37,0.87l-0.11,0.21
		c0.19-0.14,0.42-0.21,0.66-0.21l0.19-0.09l0.08-0.27l0.37,0.03l0.21-0.36h0.16l0.29,0.12l0.13-0.45h0.19v-0.33l0.35-0.09l0.08-0.09
		l0.05-0.27l0.35-0.57C357.83,166.95,357.85,166.83,357.85,166.69z"/>
	<path d="M370.5,175.33c0,0.24-0.16,0.54-0.48,0.9c-0.09,0.32-0.22,0.58-0.4,0.78l-0.16,0.03l-0.29,0.57l-0.48,0.09l-0.51,0.36
		l-0.27,0.54h-0.29c-0.2,0.09-0.35,0.14-0.48,0.16l-0.16,0.23c-0.05,0-0.13,0-0.24,0c-0.23,0-0.45,0.17-0.67,0.51l-0.37-0.36
		c-0.07,0-0.18,0-0.32,0c-0.23,0-0.42-0.05-0.58-0.15h-0.45l-0.21-0.15c-0.67-0.12-1.1-0.41-1.28-0.86v-0.09l-0.32-0.18l-0.16-0.51
		l-0.32-0.24v-0.45l-0.32-1.31v-1.07l0.16-0.48v-0.62l0.13-0.48l-0.03-0.21l0.19-0.36l-0.05,0.06c0-0.18,0.04-0.37,0.13-0.57v-0.15
		l-0.08-0.72c0-0.34,0.13-0.64,0.4-0.9c0.02-0.04,0.03-0.1,0.03-0.18c0-0.08-0.03-0.24-0.09-0.5c-0.06-0.25-0.09-0.42-0.09-0.52
		c0-0.24,0.05-0.49,0.16-0.75c0.14,0.24,0.35,0.36,0.61,0.36h0.08c0.04-0.08,0.12-0.17,0.24-0.27c0.14-0.5,0.34-0.92,0.58-1.26
		l0.11-0.12c0-0.08,0.05-0.31,0.16-0.69h0.21l0.05-0.15l0.21-0.06c0.09-0.16,0.15-0.25,0.17-0.29c0.03-0.03,0.22-0.15,0.57-0.38
		c0.07-0.14,0.18-0.27,0.32-0.39c0.07-0.04,0.16-0.08,0.27-0.12l0.11-0.18c0.48-0.18,0.78-0.27,0.9-0.27c0.14,0,0.27,0.04,0.4,0.12
		l0.13-0.03l0.19,0.12c0.21,0.18,0.43,0.33,0.64,0.45l0.45,0.39v0.12c0.41,0.36,0.61,0.87,0.61,1.53l-0.08,0.3l0.08,0.99l-0.24,0.18
		l-0.27,0.78l-0.5,0.63l-0.03,0.48c-0.57,0.46-1.09,0.83-1.57,1.11c-0.16,0.28-0.41,0.42-0.74,0.42h-0.08l-0.5,0.36h-0.43l-0.64,0.3
		l-0.48-0.27h-0.05c-0.04,0.16-0.07,0.4-0.11,0.72l-0.21,0.18l-0.03,0.36l-0.16,0.51c0.04,0.48,0.05,0.79,0.05,0.94l-0.09,0.09
		c0,0.26-0.01,0.45-0.02,0.57c0,0.02-0.01,0.05-0.02,0.09c0,0.04,0,0.07,0,0.09c0,0.16,0.07,0.29,0.21,0.39
		c0.05,0.24,0.14,0.39,0.27,0.45l0.19,0.18l0.58,0.18v0.09l0.21,0.06h0.9l0.53-0.09l0.27-0.21l0.16-0.06l0.27-0.44l0.13-0.03
		l0.67-0.24c0.07-0.14,0.19-0.26,0.35-0.36l0.08-0.15c0.35-0.08,0.56-0.29,0.61-0.62c0.25-0.28,0.57-0.42,0.96-0.42H370
		C370.33,174.69,370.5,175.05,370.5,175.33z M367.87,166.69c0-0.06-0.03-0.18-0.08-0.36l-0.13-0.03l-0.05,0.03
		c-0.02,0-0.05,0-0.11,0c-0.04,0.02-0.07,0.03-0.11,0.03c-0.02,0-0.04-0.01-0.08-0.03c-0.04,0-0.06,0-0.08,0l-0.27,0.21l-0.24,0.03
		l-0.13,0.06l-0.45,0.66l-0.29,0.24l-0.43,0.84l-0.24,0.18c-0.05,0.34-0.18,0.63-0.37,0.87l-0.11,0.21c0.2-0.14,0.42-0.21,0.67-0.21
		l0.19-0.09l0.08-0.27l0.37,0.03l0.21-0.36h0.16l0.29,0.12l0.13-0.45H367v-0.33l0.34-0.09l0.08-0.09l0.05-0.27l0.35-0.57
		C367.85,166.95,367.87,166.83,367.87,166.69z"/>
	<path d="M392.86,172.12c-0.04,0.22-0.1,0.47-0.19,0.75l0.02,0.18l0.14,1.08l-0.16,1.14v0.54l-0.05,0.39l0.05,1.32l-0.05,0.21v0.87
		v0.69l0.05,0.3l-0.05,1.89l0.16,0.54l-0.11,0.24v0.51l-0.05,0.15l0.05,0.51l-0.21,0.3v0.21l-0.11,0.27
		c-0.05,0.34-0.25,0.83-0.58,1.47l-0.19,0.75c-0.14,0.08-0.23,0.14-0.27,0.18l-0.08,0.09l-0.24,0.36l-0.27,0.45l-0.45,0.27
		c-0.21,0.44-0.46,0.69-0.74,0.75c-0.09,0.1-0.15,0.16-0.19,0.18l-0.08,0.09l-0.37,0.18l-0.21,0.24h-0.27l-0.13,0.24l-0.48-0.12
		l-0.5,0.42l-0.48-0.18l-0.88,0.18h-0.19h-0.13l-0.88-0.18h-0.4l-0.16-0.18l-1.06-0.39l-0.9-0.15l-0.13-0.27l-0.48-0.06l-0.16-0.51
		l-0.32-0.09l-0.21-0.45l-0.5-0.21l-0.43-0.69l-0.77-0.54l0.05-0.57c-0.04-0.02-0.12-0.41-0.24-1.17c0-0.32,0.06-0.71,0.19-1.17
		v-0.27l0.27-0.15l0.16-0.51l0.11,0.06l0.27-0.48l0.48-0.4l0.37-0.11l0.72-0.63h0.69c0.18-0.2,0.41-0.3,0.69-0.3
		c0.41,0.22,0.61,0.49,0.61,0.81c0,0.2-0.08,0.4-0.24,0.6l-0.37,0.21l-0.4,0.33l-0.4,0.12l-0.24,0.51l-0.4,0.01l-0.16,0.3
		l-0.35,0.33l0.03,0.45l-0.21,0.42l0.11,0.3l0.19,0.48l0.58,0.42l0.13,0.45l0.72,0.63l0.4,0.03l0.48,0.42h0.48l0.29,0.27h0.37
		l0.21,0.21l1.28-0.06l0.82-0.3l0.5,0.03l0.56-0.36c0.14-0.06,0.27-0.09,0.37-0.09c0.04-0.02,0.1-0.06,0.19-0.12l0.13-0.24
		l0.27,0.09l0.11-0.12v-0.24c0.02-0.12,0.14-0.22,0.36-0.3c0.07-0.2,0.22-0.37,0.44-0.51c0.06-0.1,0.1-0.32,0.14-0.66l0.38-0.24
		l0.08-0.21c0.07-0.16,0.15-0.33,0.22-0.51l0.03-0.09l0.08-1.17l0.11-0.09v-0.48l-0.16-0.45l0.16-0.36c0-0.4,0-0.67,0-0.81
		c0-0.18,0-0.39,0-0.61c0-0.23,0-0.37,0-0.41v-1.53l-0.19-0.39l0.19-0.63v-0.6v-1.53l-0.13-0.39l0.13-0.21v-0.39
		c0-0.14,0-0.23,0-0.27l-0.21-0.69v-1.05l-0.29,0.54l-0.32,0.27l-0.32,0.36l-0.21,0.09l-0.08,0.36l-0.24,0.15l-0.03,0.09l-0.37,0.36
		l-0.51,0.69l-0.72,0.84l-0.27,0.09l-0.08,0.15l-0.8,0.66h-0.24l-0.27,0.3l-0.11,0.3l-0.58,0.21l-0.11,0.21l-0.4,0.06l-0.56,0.42
		l-0.45,0.12l-0.21,0.18l-0.29,0.06l-0.08,0.06c-0.23,0.28-0.59,0.42-1.09,0.42c-0.53,0-0.95-0.19-1.25-0.57l-0.58-0.99v-0.57
		l-0.35-1.08v-0.9l-0.11-0.36l0.16-0.3l-0.13-0.66l0.21-0.18l0.03-0.3l0.18-0.36l-0.11-0.63l0.11-0.24v-0.21
		c0-0.42,0.06-0.91,0.19-1.47l-0.08-0.81l0.08-0.75l-0.19-1.08v-0.21l-0.11-0.18l0.32-0.96c0.07-0.32,0.11-0.64,0.11-0.96
		c0.21-0.12,0.42-0.18,0.64-0.18c0.16,0,0.32,0.03,0.48,0.09l0.24,0.6l0.45,0.36c-0.05,0.3-0.1,0.54-0.13,0.72l0.24,0.45l-0.1,0.3
		l0.34,0.33l-0.32,0.66l0.16,0.78l-0.19,0.33l0.03,0.06l-0.16,1.29v1.17l-0.16,0.18l-0.11,1.05l-0.24,0.33
		c0,0.1,0.01,0.23,0.03,0.39c0,0.14,0,0.24,0,0.3l0.19,0.54l-0.19,0.39l0.05,0.48l-0.05,0.12l0.05,0.36l0.24,0.24l0.19-0.06
		l0.03,0.18l0.19-0.3h0.77c0.11-0.12,0.24-0.22,0.4-0.3c0.41-0.32,0.77-0.5,1.09-0.54l0.03-0.39c0.5-0.3,1.12-0.69,1.89-1.17
		l0.11-0.24c-0.05,0.04-0.1,0.07-0.13,0.09c0.05-0.04,0.18-0.13,0.38-0.27l0.11-0.39l0.19-0.33l0.37-0.15l0.21-0.36l0.13,0.03
		l0.16-0.12l0.32-0.39l0.13-0.03l0.03-0.09l0.48-0.56l0.29-0.54c0.2-0.06,0.37-0.2,0.51-0.42l0.38-0.87v-0.93l0.19-0.12v-0.09
		l-0.19-0.54l0.05-0.12c-0.12-0.22-0.19-0.39-0.19-0.51c0-0.22,0.11-0.49,0.32-0.81v0.09l0.11-0.3l0.03-0.12v0.09
		c0.14-0.4,0.5-0.61,1.06-0.63l0.85,0.93l0.08,0.78l0.27,0.51l-0.16,0.48v0.21v0.15c-0.01,0.06-0.03,0.15-0.05,0.27l0.05,0.18v0.48
		l-0.05,0.48l0.05,0.66v0.48v0.21v0.57L392.86,172.12z"/>
	<path d="M405.89,170.77l-0.16,0.54c0,0.52-0.03,0.93-0.08,1.23l-0.16,0.3v0.33l-0.13,0.21l-0.08,0.42l-0.29,0.33l-0.19,0.75
		l-0.21,0.09l-0.11,0.33l-0.32,0.21l-0.21,0.51l-0.32,0.18l-0.03,0.36l-0.51,0.21c-0.23,0.36-0.51,0.59-0.85,0.69l-0.11,0.03
		c-0.25,0.42-0.58,0.63-0.98,0.63c-0.18,0.12-0.38,0.18-0.61,0.18l-0.27,0.21l-0.27,0.09l-0.35,0.3h-0.35l-0.37,0.09l-0.45-0.21
		l-1.14-0.09l-0.4-0.69l-0.58-0.69l0.13-0.48l-0.4-1.02l0.13-0.39l-0.08-0.72l0.08-0.45c0-0.28,0-0.48,0-0.6
		c0-0.38,0.09-0.66,0.28-0.84c0.02-0.2,0.14-0.53,0.36-0.99h0.14l-0.08-0.21l0.08-0.42v-0.45c0.14-0.18,0.22-0.3,0.24-0.36
		l-0.08-0.42v-0.12c0.12-0.28,0.19-0.57,0.19-0.87l0.56-0.87c0.09-0.08,0.15-0.14,0.19-0.18l-0.03-0.12h0.11l0.4-0.51l0.03-0.69
		l0.67-0.27c0.25-0.18,0.41-0.48,0.48-0.9h0.35c0.2-0.12,0.37-0.18,0.53-0.18c0.16,0,0.31,0.04,0.45,0.12l0.29,0.03l0.69-0.3
		l0.37,0.39l0.29,0.21h0.21l0.4,0.24h0.21c0.23,0.24,0.5,0.57,0.8,0.99l0.05,0.15l0.19,0.12l0.56,0.81l0.51,1.41v0.3L405.89,170.77z
		 M404.13,171.48l-0.03-0.15c-0.12-0.14-0.2-0.29-0.21-0.45l0.08-0.15l-0.24-0.57l0.05-0.57l-0.11-0.15
		c-0.23-0.2-0.35-0.36-0.37-0.48c-0.16-0.08-0.24-0.28-0.24-0.6l-0.16-0.03l-0.32-0.6l-0.24-0.21l-0.56-0.24l-0.21-0.06
		c-0.11,0-0.18-0.04-0.21-0.12l-0.53,0.66l-0.35,0.83l-0.56,0.33l-0.08,0.33l-0.27,0.15l-0.11,0.78l-0.32,0.18
		c-0.07,0.28-0.11,0.54-0.11,0.78l-0.43,0.45l0.13,0.09c0,0.24-0.09,0.45-0.27,0.63c-0.06,0.18-0.14,0.38-0.24,0.6v0.24v0.12v0.36
		l-0.29,0.81l0.05,0.15v0.83l-0.11,0.42l0.03,0.42l0.24,0.39l0.37,0.15l0.13,0.06h0.21h0.69l0.11-0.3h0.11
		c0.11,0,0.17,0.03,0.19,0.09l0.24-0.09l0.21,0.09l0.35-0.27l0.05-0.09l0.24-0.06c0.12-0.22,0.42-0.44,0.88-0.67l0.05-0.15
		l0.53-0.42l0.29-0.48l0.42-0.24l0.03-0.15l0.14-0.33v-0.39l0.32-0.3l0.11-0.21l0.13-0.18c-0.07-0.24-0.11-0.41-0.11-0.51
		c0-0.18,0.05-0.37,0.16-0.57L404.13,171.48z"/>
	<path d="M422.69,176.05c0,0.24-0.16,0.53-0.48,0.87l-0.21,0.09l-0.19,0.27l-0.48,0.15c-0.09,0.14-0.18,0.21-0.27,0.21
		c-0.02,0-0.04-0.01-0.05-0.03c-0.04,0-0.06,0-0.08,0c-0.39,0.22-0.86,0.33-1.41,0.33h-0.21l-0.67-0.15l-0.45-0.24l-1.01-0.96
		l-0.21-0.81l-0.42-0.39c0.05-0.08,0.08-0.21,0.08-0.39c0-0.12-0.07-0.32-0.21-0.6l0.08-0.72v-0.12c0-0.24-0.06-0.55-0.19-0.93
		l0.16-0.9l-0.35,0.78l-0.4,0.06l-0.05,0.63c-0.14,0.08-0.31,0.12-0.51,0.12l-0.29,0.72l-0.35,0.45c-0.14,0.18-0.27,0.28-0.37,0.3
		l-0.08,0.06l-0.96,1.11h-0.11l-0.5,0.68l-0.48,0.28l-0.27,0.4l-0.61,0.22l-0.88,0.4l-0.53-0.3c-0.35,0-0.6-0.18-0.74-0.55
		l-0.24-0.15c0-0.06,0.01-0.14,0.03-0.24c0-0.1,0-0.17,0-0.21l-0.42-0.42l0.11-0.18l-0.32-0.85l0.11-0.12v-0.06c0-0.04,0-0.1,0-0.18
		c-0.05-0.06-0.08-0.11-0.08-0.15c0-0.22,0.02-0.43,0.06-0.64l0.02-0.79l-0.08-0.64c0.05-0.16,0.08-0.3,0.08-0.42
		c0-0.14-0.04-0.27-0.11-0.39l0.29-0.24v-0.36l-0.11-0.99l0.29-1.92c0-0.32-0.08-0.79-0.24-1.41c0.05-0.64,0.42-0.99,1.12-1.05
		l0.21,0.09l0.37,0.06l0.48,0.6l-0.21,0.78v1.29l0.08,0.99l-0.16,0.36l0.08,0.24l-0.21,0.48v0.3v0.09c0,0.06,0,0.15,0,0.27
		c0,0.26-0.02,0.53-0.05,0.81l0.05,0.21l-0.06,0.45l0.04,0.35l0.01,0.42c0.14,0.12,0.21,0.27,0.21,0.45c0,0.16-0.07,0.32-0.21,0.48
		v0.12c0.09,0.34,0.14,0.56,0.14,0.66l0.25,0.27c0.11-0.08,0.24-0.18,0.39-0.3c0.06-0.2,0.19-0.33,0.39-0.39v-0.3
		c0.11,0,0.27-0.03,0.5-0.09l0.05-0.27l0.45-0.21l0.08-0.09c0.12-0.14,0.33-0.27,0.61-0.39v-0.12l0.51-0.42
		c0.12-0.38,0.35-0.63,0.66-0.75c0.2-0.22,0.33-0.35,0.4-0.39l0.35-0.51v-0.09l0.11-0.06l0.24-0.12l0.13-0.42l0.56-0.27l0.11-0.03
		l0.19-0.21v-0.27l0.16-0.06c0.05-0.32,0.19-0.56,0.41-0.72l0.39-1.02l0.15-0.54l0.05-0.12h0.11l0.19-0.15l-0.16-0.06
		c0.2-0.36,0.35-0.74,0.45-1.14l0.77-0.03l0.61,0.57l0.27,0.48l-0.29,1.29l-0.4,0.6l-0.32,1.17l-0.27,0.18v0.45l-0.16,0.33
		l0.08,0.54l-0.21,0.21l0.11,0.96l0.05,1.35h0.13v0.78l0.37,0.51l0.35,0.21l0.03,0.15c0.12,0.02,0.27,0.07,0.45,0.15l0.67,0.06
		l0.4-0.12l0.72-0.39c0.14-0.08,0.32-0.12,0.53-0.12C422.42,175.27,422.69,175.53,422.69,176.05z"/>
	<path d="M428.11,177.04l-0.19,0.09v0.21l-0.29,0.24l-0.24,0.36l-0.5,0.03l-0.16,0.03c-0.07,0.04-0.18,0.06-0.32,0.06
		c-0.18,0-0.36-0.06-0.56-0.18c-0.07-0.02-0.16-0.06-0.27-0.13s-0.19-0.2-0.24-0.38l-0.21-0.18l-0.11-0.03v-0.84
		c0-0.32,0.21-0.58,0.64-0.78c0.14-0.14,0.34-0.31,0.61-0.51l0.45,0.15l0.08,0.09l0.08-0.09l0.16,0.12h0.13
		c0.21,0,0.36,0.08,0.45,0.24l0.19,0.39l0.29,0.42l-0.05,0.42L428.11,177.04z"/>
	<path d="M435.15,177.04l-0.19,0.09v0.21l-0.29,0.24l-0.24,0.36l-0.5,0.03l-0.16,0.03c-0.07,0.04-0.18,0.06-0.32,0.06
		c-0.18,0-0.36-0.06-0.56-0.18c-0.07-0.02-0.16-0.06-0.27-0.13s-0.19-0.2-0.24-0.38l-0.21-0.18l-0.11-0.03v-0.84
		c0-0.32,0.21-0.58,0.64-0.78c0.14-0.14,0.35-0.31,0.61-0.51l0.45,0.15l0.08,0.09l0.08-0.09l0.16,0.12h0.13
		c0.21,0,0.36,0.08,0.45,0.24l0.19,0.39l0.29,0.42l-0.05,0.42L435.15,177.04z"/>
	<path d="M442.2,177.04l-0.19,0.09v0.21l-0.29,0.24l-0.24,0.36l-0.5,0.03l-0.16,0.03c-0.07,0.04-0.18,0.06-0.32,0.06
		c-0.18,0-0.36-0.06-0.56-0.18c-0.07-0.02-0.16-0.06-0.27-0.13s-0.19-0.2-0.24-0.38l-0.21-0.18l-0.11-0.03v-0.84
		c0-0.32,0.21-0.58,0.64-0.78c0.14-0.14,0.34-0.31,0.61-0.51l0.45,0.15l0.08,0.09l0.08-0.09l0.16,0.12h0.13
		c0.21,0,0.36,0.08,0.45,0.24l0.19,0.39l0.29,0.42l-0.05,0.42L442.2,177.04z"/>
</g>
<g>
</g>
<g>
</g>
<g>
</g>
<g>
</g>
<g>
</g>
<g>
</g>
<g>
</g>
<g>
</g>
<g>
</g>
<g>
</g>
<g>
</g>
</svg>
