<?xml version="1.0" encoding="utf-8"?>
<!-- Generator: Adobe Illustrator 24.1.3, SVG Export Plug-In . SVG Version: 6.00 Build 0)  -->
<svg version="1.1" id="レイヤー_1" xmlns="http://www.w3.org/2000/svg" xmlns:xlink="http://www.w3.org/1999/xlink" x="0px"
	 y="0px" viewBox="0 0 300 70" style="enable-background:new 0 0 300 70;" xml:space="preserve">
<style type="text/css">
	.st0{stroke:#000000;stroke-miterlimit:10;}
</style>
<g>
	<path class="st0" d="M79.55,46.41c-1.46,3.01-3.24,5.62-5.31,7.85c-2.08,2.22-4.39,4.05-6.94,5.49c-2.55,1.44-5.31,2.51-8.29,3.2
		s-6.07,1.05-9.28,1.05c-0.99,0-1.82,0.03-2.48,0.1c-0.66,0.07-1.2,0.13-1.63,0.2c-0.42,0.07-0.78,0.12-1.06,0.16
		c-0.28,0.04-0.57,0.07-0.85,0.07c-0.43,0-0.78-0.06-1.06-0.16c-0.28-0.11-0.42-0.29-0.42-0.56c0-0.35,0.2-0.56,0.6-0.62
		c0.4-0.07,0.72-0.1,0.96-0.1c0.66,0,1.3,0.04,1.91,0.13c0.61,0.09,1.25,0.17,1.91,0.26c2.83-1.26,5.24-3.08,7.23-5.46
		c1.98-2.38,3.75-5.03,5.31-7.98c1.56-2.94,3.01-6.03,4.36-9.25c1.35-3.22,2.83-6.29,4.46-9.19c1.63-2.9,3.51-5.51,5.63-7.85
		c2.12-2.33,4.72-4.09,7.79-5.26l-0.14-0.13c-2.03,0.31-4.2,1.13-6.52,2.48c-2.31,1.35-4.64,3.04-6.98,5.07
		c-2.34,2.03-4.65,4.29-6.94,6.8c-2.29,2.51-4.47,5.09-6.55,7.75c-1.61,2.09-3.25,4.23-4.92,6.41c-1.68,2.18-3.41,4.3-5.21,6.37
		c-1.8,2.07-3.71,4.06-5.74,5.98c-2.03,1.92-4.25,3.68-6.66,5.3l-0.5-0.65c1.65-2.4,2.99-4.97,4-7.71c1.02-2.75,1.96-5.53,2.83-8.37
		c0.87-2.83,1.76-5.64,2.66-8.43c0.9-2.79,2.04-5.45,3.44-7.98c1.39-2.53,3.13-4.86,5.21-7c2.08-2.14,4.7-3.94,7.86-5.43l-0.14-0.13
		c-3.12,0.96-5.97,2.34-8.57,4.15c-2.6,1.81-5.01,3.86-7.23,6.15c-2.22,2.29-4.27,4.75-6.16,7.39c-1.89,2.64-3.71,5.26-5.45,7.88
		c-1.75,2.62-3.42,5.14-5.03,7.58c-1.61,2.44-3.26,4.59-4.96,6.44c-1.7,1.85-3.52,3.33-5.45,4.45c-1.94,1.11-4.11,1.67-6.52,1.67
		c-0.61,0-1.22-0.04-1.81-0.13c-0.59-0.09-1.13-0.26-1.63-0.52c-0.5-0.26-0.9-0.61-1.2-1.05c-0.31-0.44-0.46-1-0.46-1.7
		c0-0.65,0.24-1.2,0.71-1.63c0.47-0.44,1.06-0.65,1.77-0.65c0.61,0,1.11,0.22,1.49,0.65c0.38,0.44,0.57,0.94,0.57,1.5
		c0,0.35-0.08,0.72-0.25,1.11c-0.17,0.39-0.44,0.63-0.81,0.72c0.05,0.26,0.33,0.48,0.85,0.65c0.52,0.17,1.02,0.26,1.49,0.26
		c2.08,0,4.01-0.6,5.81-1.8c1.79-1.2,3.55-2.79,5.28-4.77c1.72-1.98,3.44-4.25,5.14-6.8s3.47-5.2,5.31-7.94
		c2.17-3.18,4.34-6.17,6.52-8.96c2.17-2.79,4.51-5.28,7.01-7.49c2.5-2.2,5.25-4.06,8.25-5.59c3-1.52,6.41-2.64,10.24-3.33l0.07,0.59
		c-2.93,0.83-5.36,2.15-7.3,3.96c-1.94,1.81-3.6,3.93-4.99,6.37c-1.39,2.44-2.6,5.1-3.61,7.98c-1.02,2.88-2.05,5.79-3.12,8.73
		s-2.23,5.83-3.51,8.66c-1.27,2.83-2.88,5.45-4.82,7.85l0.14,0.13c1.75-1.39,3.51-3.04,5.28-4.94c1.77-1.9,3.51-3.88,5.21-5.95
		c1.7-2.07,3.34-4.14,4.92-6.21c1.58-2.07,3.06-3.98,4.43-5.72c3.68-4.66,7.06-8.41,10.13-11.25c3.07-2.83,5.9-5.02,8.5-6.57
		c2.6-1.55,4.97-2.58,7.12-3.11c2.15-0.52,4.14-0.78,5.99-0.78c0.71,0,1.39,0.1,2.05,0.29c0.66,0.2,0.99,0.51,0.99,0.95
		c0,0.35-0.14,0.57-0.42,0.65c-0.28,0.09-0.61,0.13-0.99,0.13c-0.66,0-1.36-0.08-2.09-0.23c-0.73-0.15-1.45-0.23-2.16-0.23
		c-1.09,0-2.18,0.44-3.29,1.31c-1.11,0.87-2.22,2.01-3.33,3.4c-1.11,1.4-2.18,2.95-3.22,4.67c-1.04,1.72-2,3.42-2.87,5.1
		c-0.87,1.68-1.63,3.24-2.27,4.67c-0.64,1.44-1.15,2.57-1.52,3.4c-0.76,1.88-1.63,3.87-2.62,5.98c-0.99,2.11-2.22,4.18-3.68,6.21
		c-1.46,2.03-3.25,3.93-5.35,5.72c-2.1,1.79-4.66,3.29-7.69,4.51v0.13c7.18,0,13.26-1.44,18.24-4.31
		c4.98-2.88,8.91-7.17,11.79-12.88L79.55,46.41z"/>
	<path class="st0" d="M105.5,47.58c-1.41,1.58-2.95,3.17-4.63,4.78c-1.68,1.61-3.38,3.06-5.08,4.36c-1.71,1.3-3.41,2.34-5.08,3.13
		c-1.68,0.79-3.22,1.18-4.63,1.18c-1.22,0-2.08-0.28-2.57-0.85c-0.49-0.56-0.73-1.27-0.73-2.11c0-0.79,0.26-1.85,0.78-3.17
		c0.52-1.32,1.3-2.75,2.34-4.27c-0.79,0.96-1.71,1.97-2.75,3.04c-1.04,1.07-2.11,2.04-3.21,2.92c-1.1,0.88-2.2,1.61-3.3,2.2
		c-1.1,0.59-2.08,0.89-2.93,0.89c-1.28,0-1.92-0.59-1.92-1.78c0-1.3,0.55-2.93,1.65-4.9c1.1-1.97,2.58-3.88,4.44-5.71
		c1.86-1.83,3.99-3.41,6.37-4.74c2.38-1.32,4.86-1.99,7.42-1.99c0.31-0.56,0.58-0.96,0.82-1.18c0.24-0.22,0.49-0.39,0.73-0.51
		l2.57-0.68l0.18,0.08c-0.31,0.28-0.6,0.63-0.87,1.06s-0.57,0.86-0.87,1.31c0.31,0,0.76,0.03,1.37,0.08
		c0.61,0.06,1.07,0.11,1.37,0.17c0.3,0.11,0.46,0.25,0.46,0.42c0,0.17-0.09,0.25-0.27,0.25c-0.37-0.11-0.92-0.2-1.65-0.25
		c-0.73-0.06-1.28-0.08-1.65-0.08c-2.81,4.57-4.87,8.19-6.18,10.87c-1.31,2.68-1.97,4.67-1.97,5.96c0,0.51,0.14,0.93,0.41,1.27
		c0.27,0.34,0.84,0.51,1.69,0.51c0.98,0,2.14-0.33,3.48-0.97c1.34-0.65,2.78-1.55,4.31-2.71c1.53-1.16,3.1-2.5,4.72-4.02
		c1.62-1.52,3.16-3.13,4.63-4.82c0.12-0.17,0.24-0.21,0.37-0.13C105.44,47.28,105.5,47.41,105.5,47.58z M91.21,41.15
		c-2.08,0-4.06,0.68-5.96,2.03c-1.89,1.35-3.57,2.95-5.04,4.78c-1.47,1.83-2.64,3.65-3.53,5.46c-0.89,1.8-1.33,3.13-1.33,3.97
		c0,0.45,0.18,0.68,0.55,0.68c0.37,0,0.93-0.22,1.7-0.68c0.76-0.45,1.63-1.06,2.61-1.82c0.98-0.76,1.97-1.65,2.98-2.66
		s1.94-2.11,2.79-3.3c0.98-1.35,1.92-2.79,2.84-4.31c0.92-1.52,1.74-2.88,2.47-4.06L91.21,41.15z"/>
	<path class="st0" d="M170.84,21.53c0.24,0.06,0.37,0.2,0.37,0.42c0,0.23-0.12,0.34-0.37,0.34c-0.37-0.06-0.7-0.08-1.01-0.08
		c-0.24,0-0.46,0-0.64,0c-0.49,0-0.89,0.04-1.19,0.13c-0.31,0.08-0.61,0.3-0.92,0.63c-1.28,1.52-2.66,3.54-4.12,6.05
		c-1.47,2.51-2.9,4.98-4.31,7.4c-1.41,2.37-2.81,4.67-4.21,6.89c-1.41,2.23-2.84,4.41-4.31,6.55c-0.98,1.47-2.15,3.03-3.53,4.69
		c-1.37,1.66-2.67,3.03-3.89,4.1c-1.34,1.18-2.78,2.35-4.31,3.51c-1.53,1.16-3.19,2.18-4.99,3.09c-1.8,0.9-3.74,1.63-5.82,2.2
		c-2.08,0.56-4.4,0.85-6.96,0.85c-2.75,0-5.1-0.37-7.05-1.1c-0.31-0.11-0.53-0.24-0.69-0.38c-0.15-0.14-0.2-0.41-0.14-0.8
		c0-0.39,0.02-0.94,0.05-1.65c0.03-0.71,0.08-1.45,0.14-2.24l0.64-0.17c0.24,1.46,1.02,2.72,2.34,3.76
		c1.31,1.04,3.44,1.56,6.37,1.56c2.57,0,4.93-0.41,7.1-1.23c2.17-0.82,4.44-2.33,6.83-4.52c2.14-1.97,4.29-4.41,6.46-7.32
		c2.17-2.9,4.41-6.16,6.73-9.77c1.04-1.63,2.14-3.4,3.3-5.29c1.16-1.89,2.29-3.79,3.39-5.71c1.1-1.92,2.14-3.76,3.12-5.54
		c0.98-1.78,1.8-3.34,2.47-4.69c0.06-0.11,0.09-0.28,0.09-0.51c0-0.22-0.18-0.34-0.55-0.34c-1.28,0-2.66,0.07-4.12,0.21
		c-1.46,0.14-2.93,0.35-4.4,0.63c-1.47,0.28-2.87,0.62-4.22,1.02c-1.34,0.4-2.54,0.85-3.57,1.35c-1.04,0.51-1.97,1.3-2.79,2.37
		c-0.82,1.07-1.24,2.26-1.24,3.55c0,0.45,0.06,0.85,0.18,1.18c0.12,0.17,0.06,0.25-0.18,0.25c-0.31-0.17-0.63-0.51-0.96-1.01
		c-0.34-0.51-0.5-1.3-0.5-2.37c0-0.9,0.49-1.93,1.47-3.09c0.98-1.15,2.75-2.13,5.31-2.92c0.92-0.28,1.98-0.54,3.21-0.76
		c1.22-0.22,2.78-0.44,4.67-0.63c1.89-0.2,4.2-0.35,6.92-0.47C163.71,21.59,167,21.53,170.84,21.53z"/>
	<path class="st0" d="M188.99,44.79c-1.04,1.3-2.31,2.47-3.8,3.51c-1.5,1.04-3.19,1.56-5.08,1.56c-1.04,0-2.06-0.24-3.07-0.72
		c-1.01-0.48-1.82-1.2-2.43-2.16c-0.43,0.9-0.98,1.93-1.65,3.09c-0.67,1.16-1.47,2.31-2.38,3.47c-0.92,1.16-1.94,2.21-3.07,3.17
		c-1.13,0.96-2.34,1.75-3.62,2.37c-1.1,0.45-2.02,0.68-2.75,0.68c-2.2,0-3.3-0.9-3.3-2.71c0-1.01,0.2-2.06,0.6-3.13
		c0.4-1.07,0.9-2.11,1.51-3.13c0.61-1.01,1.27-1.97,1.97-2.88c0.7-0.9,1.36-1.63,1.97-2.2c1.28-1.3,2.75-2.4,4.4-3.3
		c1.65-0.9,3.42-1.44,5.31-1.61c0.12-0.45,0.3-0.97,0.55-1.56c0.24-0.59,0.67-0.94,1.28-1.06c0.3-0.06,0.61-0.11,0.92-0.17
		c0.3-0.06,0.58-0.14,0.82-0.25c0.18-0.11,0.37-0.13,0.55-0.04c0.18,0.08,0.21,0.24,0.09,0.47c-0.43,0.62-0.75,1.41-0.96,2.37
		c-0.21,0.96-0.32,2-0.32,3.13c0,1.58,0.32,2.88,0.96,3.89c0.64,1.01,1.75,1.52,3.34,1.52c1.59,0,3.02-0.48,4.31-1.44
		c1.28-0.96,2.35-2,3.21-3.13c0.12-0.28,0.32-0.37,0.6-0.25C189.21,44.4,189.23,44.57,188.99,44.79z M173.87,45.38
		c-0.12-0.51-0.21-1.1-0.28-1.78c-0.06-0.68-0.09-1.32-0.09-1.95c0-0.28-0.12-0.42-0.37-0.42c-0.67,0-1.37,0.21-2.11,0.63
		c-0.73,0.42-1.47,0.99-2.2,1.69c-0.73,0.71-1.47,1.51-2.2,2.41c-0.73,0.9-1.41,1.83-2.02,2.79c-0.79,1.24-1.51,2.58-2.15,4.02
		s-0.93,2.81-0.87,4.1c0,0.4,0.08,0.76,0.23,1.1c0.15,0.34,0.5,0.51,1.05,0.51c1.04,0,2.17-0.54,3.39-1.61
		c1.22-1.07,2.38-2.33,3.48-3.76c1.1-1.44,2.03-2.89,2.79-4.35C173.3,47.3,173.75,46.17,173.87,45.38z"/>
	<path class="st0" d="M201.81,41.92c-0.37,0.39-0.75,0.87-1.15,1.44c-0.4,0.56-0.66,0.99-0.78,1.27c-0.06,0.17-0.18,0.25-0.37,0.25
		c-0.06,0-0.15-0.08-0.27-0.25c-0.12-0.17-0.29-0.35-0.5-0.55c-0.21-0.2-0.5-0.38-0.87-0.55c-0.37-0.17-0.89-0.25-1.56-0.25
		c-0.79,0-1.68,0.25-2.66,0.76c-0.98,0.51-1.83,1.07-2.57,1.69c-1.16,0.9-2.18,1.89-3.07,2.96c-0.89,1.07-1.73,2.19-2.52,3.34
		c-0.79,1.16-1.56,2.34-2.29,3.55c-0.73,1.21-1.53,2.44-2.38,3.68c-0.06,0.17-0.25,0.25-0.55,0.25c-0.12,0-0.38-0.17-0.78-0.51
		c-0.4-0.34-0.6-0.59-0.6-0.76c0-0.34,0.21-0.84,0.64-1.52c0.98-1.58,1.97-3.17,2.98-4.78s1.95-3.11,2.84-4.52
		c0.88-1.41,1.66-2.63,2.34-3.68c0.67-1.04,1.13-1.82,1.38-2.33c0.3-0.51,0.52-0.76,0.64-0.76c0.12,0,0.43,0.14,0.92,0.42
		c0.49,0.28,0.73,0.68,0.73,1.18c0,0.17-0.11,0.45-0.32,0.85c-0.21,0.4-0.46,0.8-0.73,1.23c-0.27,0.42-0.54,0.83-0.78,1.23
		c-0.25,0.4-0.43,0.68-0.55,0.85c-0.18,0.28-0.21,0.42-0.09,0.42c0.12,0,0.27-0.08,0.46-0.25c0.61-0.56,1.36-1.18,2.25-1.86
		c0.88-0.68,1.82-1.31,2.79-1.9c0.98-0.59,1.94-1.08,2.89-1.48c0.95-0.39,1.79-0.59,2.52-0.59c0.55,0,1.02,0.13,1.42,0.38
		C201.61,41.37,201.81,41.63,201.81,41.92z"/>
	<path class="st0" d="M257.34,2.93c0,0.34-0.18,0.68-0.55,1.01c-0.37,0.34-0.61,0.82-0.73,1.44c-0.12,0.4-0.34,0.59-0.64,0.59
		c-0.18,0-0.37-0.04-0.55-0.13c-0.18-0.08-0.41-0.18-0.69-0.3c-0.27-0.11-0.61-0.21-1.01-0.3c-0.4-0.08-0.96-0.13-1.7-0.13
		c-1.04,0-2.08,0.13-3.12,0.38c-1.04,0.25-1.99,0.63-2.84,1.14c-1.71,1.02-3.56,2.45-5.54,4.31c-1.99,1.86-3.8,3.89-5.45,6.09
		c-4.09,5.41-7.68,10.47-10.77,15.18c-3.08,4.71-5.67,8.92-7.74,12.64c-2.08,3.72-3.63,6.89-4.67,9.51
		c-1.04,2.62-1.56,4.55-1.56,5.79c0,0.96,0.23,1.75,0.69,2.37c0.46,0.62,1.21,0.93,2.24,0.93c1.65,0,3.22-0.48,4.72-1.44
		c1.5-0.96,2.92-2.16,4.26-3.59c1.34-1.44,2.57-3.03,3.67-4.78c1.1-1.75,2.05-3.38,2.84-4.9c0.12-0.22,0.32-0.31,0.6-0.25
		c0.28,0.06,0.26,0.28-0.05,0.68c-1.1,2.03-2.28,3.96-3.53,5.79c-1.25,1.83-2.57,3.44-3.94,4.82c-1.38,1.38-2.81,2.47-4.31,3.26
		c-1.5,0.79-2.98,1.18-4.44,1.18c-1.65,0-2.87-0.41-3.67-1.23c-0.79-0.82-1.19-1.88-1.19-3.17c0-1.35,0.29-2.8,0.87-4.36
		c0.58-1.55,1.48-3.45,2.7-5.71c-1.71,1.92-3.21,3.52-4.49,4.82c-1.28,1.3-2.41,2.31-3.39,3.04c-0.98,0.73-1.82,1.26-2.52,1.56
		c-0.7,0.31-1.33,0.47-1.88,0.47c-0.86,0-1.44-0.21-1.74-0.63s-0.46-0.97-0.46-1.65c0-0.51,0.15-1.17,0.46-1.99s0.73-1.62,1.28-2.41
		c2.26-3.38,4.78-6.14,7.56-8.29c2.78-2.14,6.21-3.55,10.31-4.23c2.93-4.74,5.74-8.99,8.43-12.77c2.69-3.78,5.62-7.47,8.8-11.08
		c2.63-3.04,5.24-5.72,7.83-8.03c2.6-2.31,5.27-4.06,8.02-5.24c2.08-0.9,3.88-1.35,5.41-1.35c0.73,0,1.33,0.08,1.79,0.25
		C257.11,2.42,257.34,2.65,257.34,2.93z M215.65,41.75c-2.32,0.06-4.11,0.47-5.36,1.23c-1.25,0.76-2.37,1.71-3.34,2.83
		c-2.32,2.65-3.97,4.92-4.95,6.81c-0.98,1.89-1.47,3.29-1.47,4.19c0,0.28,0.12,0.48,0.37,0.59c0.24,0.11,0.43,0.17,0.55,0.17
		c0.43,0,1.21-0.42,2.34-1.27c1.13-0.85,2.38-1.99,3.76-3.42c1.38-1.44,2.79-3.11,4.26-5.03C213.27,45.92,214.55,43.89,215.65,41.75
		z"/>
	<path class="st0" d="M254.59,44.79c-1.04,1.3-2.31,2.47-3.8,3.51c-1.5,1.04-3.19,1.56-5.08,1.56c-1.04,0-2.06-0.24-3.07-0.72
		c-1.01-0.48-1.82-1.2-2.43-2.16c-0.43,0.9-0.98,1.93-1.65,3.09c-0.67,1.16-1.47,2.31-2.38,3.47c-0.92,1.16-1.94,2.21-3.07,3.17
		c-1.13,0.96-2.34,1.75-3.62,2.37c-1.1,0.45-2.02,0.68-2.75,0.68c-2.2,0-3.3-0.9-3.3-2.71c0-1.01,0.2-2.06,0.6-3.13
		c0.4-1.07,0.9-2.11,1.51-3.13c0.61-1.01,1.27-1.97,1.97-2.88c0.7-0.9,1.36-1.63,1.97-2.2c1.28-1.3,2.75-2.4,4.4-3.3
		c1.65-0.9,3.42-1.44,5.31-1.61c0.12-0.45,0.3-0.97,0.55-1.56c0.24-0.59,0.67-0.94,1.28-1.06c0.3-0.06,0.61-0.11,0.92-0.17
		c0.3-0.06,0.58-0.14,0.82-0.25c0.18-0.11,0.37-0.13,0.55-0.04c0.18,0.08,0.21,0.24,0.09,0.47c-0.43,0.62-0.75,1.41-0.96,2.37
		c-0.21,0.96-0.32,2-0.32,3.13c0,1.58,0.32,2.88,0.96,3.89c0.64,1.01,1.75,1.52,3.34,1.52c1.59,0,3.02-0.48,4.31-1.44
		c1.28-0.96,2.35-2,3.21-3.13c0.12-0.28,0.32-0.37,0.6-0.25C254.82,44.4,254.83,44.57,254.59,44.79z M239.47,45.38
		c-0.12-0.51-0.21-1.1-0.28-1.78c-0.06-0.68-0.09-1.32-0.09-1.95c0-0.28-0.12-0.42-0.37-0.42c-0.67,0-1.37,0.21-2.11,0.63
		c-0.73,0.42-1.47,0.99-2.2,1.69c-0.73,0.71-1.47,1.51-2.2,2.41c-0.73,0.9-1.41,1.83-2.02,2.79c-0.79,1.24-1.51,2.58-2.15,4.02
		s-0.93,2.81-0.87,4.1c0,0.4,0.08,0.76,0.23,1.1c0.15,0.34,0.5,0.51,1.05,0.51c1.04,0,2.17-0.54,3.39-1.61
		c1.22-1.07,2.38-2.33,3.48-3.76c1.1-1.44,2.03-2.89,2.79-4.35C238.91,47.3,239.35,46.17,239.47,45.38z"/>
	<path class="st0" d="M275.85,48.26c-1.1,1.41-2.37,2.83-3.8,4.27c-1.44,1.44-2.96,2.72-4.58,3.85c-1.62,1.13-3.27,2.06-4.95,2.79
		c-1.68,0.73-3.31,1.1-4.9,1.1c-0.73,0-1.41-0.1-2.02-0.3c-0.61-0.2-0.92-0.69-0.92-1.48s0.3-1.79,0.92-3
		c0.61-1.21,1.33-2.49,2.15-3.85c0.82-1.35,1.68-2.73,2.57-4.14c0.88-1.41,1.6-2.71,2.15-3.89c0.12-0.28,0.14-0.52,0.04-0.72
		c-0.09-0.2-0.29-0.21-0.59-0.04c-0.67,0.4-1.47,0.93-2.38,1.61c-0.92,0.68-1.85,1.39-2.79,2.16c-0.95,0.76-1.86,1.54-2.75,2.33
		c-0.89,0.79-1.6,1.49-2.15,2.11c-0.98,1.41-1.82,2.71-2.52,3.89c-0.7,1.18-1.57,2.51-2.61,3.97c-0.25,0.34-0.43,0.51-0.55,0.51
		c-0.31,0-0.57-0.31-0.78-0.93c-0.21-0.62-0.32-1.01-0.32-1.18c0-0.51,0.38-1.2,1.15-2.07c0.76-0.87,1.6-1.85,2.52-2.92
		c0.98-1.8,1.98-3.71,3.02-5.71c1.04-2,1.92-3.79,2.66-5.37c0.18-0.28,0.46-0.42,0.83-0.42c0.37,0,0.7,0.14,1.01,0.42
		c0.3,0.28,0.46,0.59,0.46,0.93c0,0.23-0.44,1-1.33,2.33c-0.89,1.33-1.76,2.86-2.61,4.61c1.16-0.96,2.43-1.97,3.8-3.04
		c1.37-1.07,2.69-2.06,3.94-2.96c1.25-0.9,2.35-1.65,3.3-2.24c0.95-0.59,1.6-0.89,1.97-0.89c0.24,0,0.47,0.13,0.69,0.38
		c0.21,0.25,0.32,0.49,0.32,0.72c0,0.23-0.15,0.56-0.46,1.01c-0.67,0.9-1.5,2.06-2.47,3.47c-0.98,1.41-1.91,2.86-2.79,4.36
		c-0.89,1.49-1.63,2.92-2.24,4.27c-0.61,1.35-0.92,2.42-0.92,3.21c0,0.68,0.15,1.14,0.46,1.39c0.31,0.25,0.79,0.38,1.47,0.38
		c1.04,0,2.26-0.37,3.67-1.1c1.4-0.73,2.85-1.65,4.35-2.75c1.5-1.1,2.92-2.33,4.26-3.68c1.34-1.35,2.44-2.65,3.3-3.89
		c0.12-0.17,0.31-0.21,0.55-0.13C276.18,47.71,276.15,47.92,275.85,48.26z"/>
	<path class="st0" d="M294.08,49.1c-1.04,1.18-2.28,2.41-3.71,3.68c-1.44,1.27-2.99,2.42-4.67,3.47c-1.68,1.04-3.42,1.89-5.22,2.54
		c-1.8,0.65-3.59,0.97-5.36,0.97c-2.87,0-4.31-1.18-4.31-3.55c0-1.58,0.44-3.28,1.33-5.12c0.88-1.83,2.03-3.52,3.44-5.07
		s2.95-2.85,4.63-3.89c1.68-1.04,3.28-1.56,4.81-1.56c0.85,0,1.45,0.14,1.79,0.42c0.33,0.28,0.5,0.65,0.5,1.1
		c0,0.68-0.23,1.41-0.69,2.2c-0.46,0.79-1.15,1.54-2.06,2.24c-0.92,0.71-2.08,1.3-3.48,1.78c-1.41,0.48-3.08,0.72-5.04,0.72
		c-0.31,0.51-0.64,1.31-1.01,2.41c-0.37,1.1-0.55,2.21-0.55,3.34c0,2.31,1.13,3.47,3.39,3.47c1.4,0,2.85-0.31,4.35-0.93
		c1.5-0.62,2.95-1.4,4.35-2.33c1.4-0.93,2.7-1.95,3.89-3.04c1.19-1.1,2.18-2.13,2.98-3.09c0.12-0.11,0.26-0.14,0.41-0.08
		C294,48.82,294.08,48.93,294.08,49.1z M284.46,42.51c0-0.73-0.4-1.1-1.19-1.1c-0.61,0-1.24,0.21-1.88,0.63s-1.27,0.97-1.88,1.65
		c-0.61,0.68-1.19,1.41-1.74,2.2c-0.55,0.79-1.01,1.55-1.37,2.28c0.12,0.06,0.33,0.1,0.64,0.13c0.3,0.03,0.55,0.04,0.73,0.04
		c1.77,0,3.33-0.58,4.67-1.73C283.79,45.45,284.46,44.09,284.46,42.51z"/>
</g>
<g>
</g>
<g>
</g>
<g>
</g>
<g>
</g>
<g>
</g>
<g>
</g>
<g>
</g>
<g>
</g>
<g>
</g>
<g>
</g>
<g>
</g>
</svg>
